<svg xmlns="http://www.w3.org/2000/svg" viewBox="0 0 2732 2732"><defs><style>.a{fill:url(#a);}  .b{fill:url(#b);}</style><radialGradient id="a" cx="854.1353" cy="818.84965" fx="-159.77258890858639" r="2493.12417" gradientUnits="userSpaceOnUse"><stop offset="0.00095" stop-color="#fff"/><stop offset="0.08" stop-color="#ffffac"/><stop offset="0.25" stop-color="#d1b464"/><stop offset="0.625" stop-color="#5d4a1f"/><stop offset="1" stop-color="#5d4a1f"/></radialGradient><radialGradient id="b" cx="2730.08198" cy="2733.42989" r="3763.45732" gradientUnits="userSpaceOnUse"><stop offset="0" stop-color="#fedb37"/><stop offset="0.08" stop-color="#fdb931"/><stop offset="0.3" stop-color="#d8b46a"/><stop offset="0.4" stop-color="#c79f4b"/><stop offset="1" stop-color="#c79f4b" stop-opacity="0"/></radialGradient></defs><path class="a" d="M309.42188,828.5415c-.28907-12.65576,3.26171-22.87451,10.55322-30.37158,8.32568-8.561,20.563-12.76367,37.40429-12.84863,19.019-.09522,38.33594-.07227,57.01709-.04981q12.6299.01466,25.26123.02051,11.23828,0,22.47559-.01318c17.69727-.01514,35.99561-.03027,54.00879.04248,13.24072.05371,23.53174,2.72656,31.46094,8.17236,7.07275,4.85742,15.59277,14.418,16.01172,32.3794.29541,12.65381-3.27539,22.89355-10.6128,30.43457-8.27392,8.5039-20.85107,12.84961-37.38086,12.916-25.39941.10254-51.27929.15381-78.02685.15381-25.96875,0-52.75537-.04834-80.71436-.145C314.88086,869.08691,309.69971,840.72754,309.42188,828.5415ZM319.77734,1285.419c52.9961,43.63232,107.07813,87.72949,159.3794,130.374l12.49121,10.18555c1.7417,1.42089,3.606,3.1582,5.58008,4.998,6.84961,6.38574,14.61279,13.624,25.085,15.06348a80.18444,80.18444,0,0,0,10.4082.63965c10.44287,0,26.08985-1.874,35.48193-11.83692,10.4795-11.11425,6.31592-30.90039,3.27588-45.34765-1.8667-8.8711-9.12255-13.958-14.95312-18.0459-1.46094-1.02442-2.84082-1.99219-3.86084-2.83008-41.58252-34.16943-82.55029-67.76807-125.92285-103.33984l-23.57031-19.33155q18.34643-15.02269,36.28662-29.70166c40.27978-32.96289,78.32617-64.09814,116.75634-95.77636,13.897-11.45508,21.90137-25.13037,22.53809-38.50684.49853-10.46-3.35352-20.09717-11.13916-27.86963-10.50879-10.4917-22.25244-14.82715-34.91211-12.88818-9.28271,1.42285-18.59473,6.186-29.3042,14.98974-29.05908,23.88672-58.6748,48.10206-87.31592,71.51954-31.52148,25.77294-64.11572,52.42382-96.09912,78.74316-10.4209,8.57568-24.27539,22.00977-24.27734,39.58936C295.70312,1263.57129,309.44287,1276.91016,319.77734,1285.419Zm389.17432,579.582c-8.07031-5.07032-18.28564-7.43555-32.13623-7.43555h-.25928c-109.37988.2334-221.18261.15527-317.39209.06738-8.81885-.02051-21.74414.7168-32.14746,7.08692-10.9917,6.72949-16.96094,17.88867-17.74267,33.168-.751,14.68261,4.86132,23.86035,9.70263,28.97363,8.69532,9.18457,22.63037,13.876,41.418,13.94433,36.89893.13477,74.40088.10743,110.66846.07911q45.87891-.03516,91.76172.001c15.16845.01074,30.54834.02246,46.01123.02246,22.147,0,44.46338-.02343,66.56689-.10547,18.54834-.06933,33.08838-5.23339,42.04737-14.93554,6.95214-7.5293,10.1831-17.34278,9.34423-28.37891C725.6665,1882.66211,719.66406,1871.73242,708.95166,1865.001Zm-39.91455-387.39844h.31055l.311-.01465c30.686-1.44629,38.03565-29.00684,41.17383-40.77539,16.32959-61.24121,33.03076-123.48633,49.18213-183.68213,15.66406-58.38086,31.8623-118.74951,47.707-178.15137,4.8252-18.08886,3.8252-32.73291-2.97266-43.52539-3.82666-6.0747-11.49463-13.90039-26.29785-16.68506-14.80322-2.78271-26.93017.28956-36.03857,9.13819-6.70117,6.51074-11.30127,15.56738-14.91406,29.36572-10.14063,38.72754-20.82032,78.0376-31.14893,116.05371-5.65186,20.80274-11.49609,42.31348-17.18848,63.49463l-2.29736,8.54785c-15.50488,57.69141-31.53809,117.34717-46.97754,176.12647-4.7417,18.05078-2.6416,34.10351,5.91211,45.20215C643.19775,1472.29883,655.002,1477.59277,669.03711,1477.60254ZM1049.17969,1150.395q-17.04786-13.905-34.11182-27.791c-27.23877-22.17871-55.40527-45.11279-82.98-67.79882-12.98291-10.68116-25.55957-15.45508-37.37842-14.18262-10.333,1.10937-19.47949,6.62012-27.186,16.3789-16.0669,20.34717-11.86426,43.39649,11.24316,61.65723,7.35254,5.81006,14.75635,11.92236,21.917,17.834l5.21973,4.30566c33.79346,27.83105,67.57861,55.67139,102.03516,84.064l25.4873,21.001c-3.73193,3.36719-7.14062,6.39453-10.61133,9.25147l-7.56347,6.227c-44.69971,36.7998-90.92139,74.853-136.56787,112.02343-22.85108,18.60743-26.91163,41.01172-11.13868,61.46875,9.40967,12.20508,19.89209,15.74219,27.0293,16.56153a35.95173,35.95173,0,0,0,4.11377.23535c10.27832,0,20.81885-4.36524,31.39355-13.01465,21.05713-17.22266,42.50733-34.69336,63.252-51.58984,42.03711-34.24024,85.50537-69.645,127.98486-104.83985,13.3999-11.10254,20.20752-23.18359,20.2334-35.90869.02783-13.2417-7.375-26.15234-22.001-38.37207-16.30664-13.62353-33.0498-27.20556-49.24218-40.34033Q1059.7356,1158.9895,1049.17969,1150.395ZM713.84619,869.27051c35.59424.12988,71.77051.10107,106.75733.07422q44.51733-.033,89.03369.001c14.58447.01123,29.375.02246,44.24511.02246,20.811,0,41.77686-.02246,62.54346-.09961h.00049c20.48926-.07568,35.58789-5.28857,44.87744-15.49169,6.86133-7.53663,9.96143-17.35059,8.96582-28.38038-1.39307-15.439-7.94336-26.63964-19.46924-33.293-10.84375-6.25977-24.249-6.958-33.34228-6.93506-100.34815.229-202.94727.23047-304.94678.00244-9.11084.00146-22.50977.689-33.3916,7.0542-11.46973,6.709-17.9585,17.93847-19.28613,33.37646-.94434,10.981,2.17529,20.74317,9.022,28.231C678.15332,864.00146,693.29053,869.1958,713.84619,869.27051Zm145.03565,819.30273c.26562-12.01172-3.43848-22.30469-10.71143-29.7666-7.81445-8.01562-19.251-12.27637-33.07568-12.32324q-3.78516-.01172-7.57032-.04688c-3.36718-.02636-6.73388-.05175-10.10156-.05273q-87.58521-.00732-175.17187-.00488l-99.90235-.001q-74.04126-.00293-148.08593.00391c-31.15772.0039-64.46,3.14062-65.14942,40.5166-.22021,11.92285,2.96826,21.07617,9.74658,27.98144,9.99463,10.18067,26.42774,14.335,56.72119,14.33692q68.44484.00293,136.874.0039,58.75562,0,117.52588-.00586,30.783-.00293,61.56592-.02343c40.08154-.02051,81.52978-.041,122.29.002h.07666C841.09668,1729.19238,858.32715,1713.63379,858.88184,1688.57324Zm288.45117-42.14746c-62.02149.06055-113.19043.06055-161.03321,0h-.09765c-27.67041,0-44.57959,14.90332-45.23194,39.87988-.40917,15.67286,5.55909,25.17481,10.63819,30.38575,8.07324,8.28222,19.81885,12.48144,34.91357,12.48144h.04053q26.45434-.01171,52.91309-.00586l27.61328.001q11.78979-.00147,23.58008-.01367c18.65576-.01563,37.94531-.03125,56.90283.03711h.26172c27.10058,0,44.38623-15.28321,45.1289-39.9336.47022-15.61328-5.46045-25.09863-10.51855-30.30664-8.07276-8.31152-19.85791-12.52539-35.03418-12.52539ZM877.36963,1857.38867c-7.88477-.55371-17.69775-1.24512-25.7544,4.10547-9.9458,6.60742-26.71679,20.0625-27.28759,35.94727-.61426,17.08691,16.5664,32.63671,23.98144,38.53027,5.59717,4.44727,12.46,5.416,18.96631,5.416,2.68408,0,5.30859-.165,7.75684-.31934,2.15088-.13477,4.147-.2793,5.89209-.26172,106.42675.06836,214.63037.0625,319.27734.06055l74.11523-.002,107.87256.001q140.23242,0,280.46973-.00391c18.50586-.001,61.84473-.0039,62.02539-41.64746.05176-11.95605-3.22754-21.08691-10.02344-27.91308-9.5166-9.55762-25.04785-13.63672-51.93554-13.63867-214.2168-.01465-496.37452-.02442-779.208.03125C881.72168,1857.69531,879.60791,1857.5459,877.36963,1857.38867Zm1771.99658,128.14746c-.02539,71.501-22.34277,131.40723-64.53906,173.24121-42.13867,41.77539-102.42676,63.86328-174.34766,63.874q-64.7124.01024-129.4248.03125c-210.72071.05957-428.60938.123-642.92481-.53125-.11914,0-.23828-.001-.35644-.001-15.752,0-20.582,3.2832-25.67285,17.26172-28.59571,78.53711-28.59571,152.9541.001,227.50488,5.709,14.88574,10.27832,18.28613,23.28125,17.3125,19.7334-1.47363,39.62793-1.14062,58.86524-.82226,9.14355.15136,18.59863.3125,27.8125.26465.168-.001.33886-.001.50683-.001,16.89942,0,29.13477,4.11621,37.39746,12.5791,7.26758,7.44238,10.76856,17.63086,10.40723,30.28223-.50879,17.77539-8.87207,27.27734-15.79883,32.11914-7.97754,5.57617-18.36621,8.28711-31.75683,8.28711h-.04493c-214.95214-.10157-441.10742-.11036-711.72509-.02832h-.02491c-29.42871.001-46.4746-15.09278-46.77392-41.416-.13965-12.26465,3.4414-22.17676,10.644-29.46,8.07031-8.16113,20.15576-12.2998,35.918-12.2998.15088.002.2832,0,.42481,0,9.42431,0,19.01367-.04883,28.29248-.09571,21.26464-.10644,43.25293-.21777,64.95361.24317,9.271.19824,11.61279-1.16407,14.76562-8.57032,17.396-40.86132,25.99463-82.46,25.55616-123.63769-.43067-40.46192-9.59571-81.75977-27.24317-122.75781-1.71728-2.07227-8.87109-5.62207-13.38965-5.667-73.99267-.73242-149.26562-.6748-222.06494-.61718-20.1582.0166-40.28955.06445-60.4751.03125q-75.73827-.05127-151.52.06738c-117.44629.08008-238.89014.16211-358.34522-.2207-54.22949-.17383-103.78223-16.64258-143.30078-47.625-39.61914-31.06153-66.53516-74.63965-77.83936-126.02149-4.70214-21.376-5.12353-43.15723-5.15966-65.45312-.26465-163.44532-.23731-329.62207-.21094-490.32715q.011-65.32178.01611-130.64356.00366-93.60717-.0581-187.21338c-.06983-144.64892-.14307-294.22168.21484-441.3413.13672-56.25586,16.61816-106.97364,47.6626-146.66993,31.144-39.82373,75.4209-66.65625,128.04345-77.59863,20.84131-4.3335,42.20069-4.35205,62.85743-4.37012,229.37988-.20361,531.34716-.36767,832.91552.17969,15.8545.02393,19.29444-1.14892,23.50879-14.73828,11.38037-36.69336,35.75928-68.88086,76.72071-101.29639,70.46582-55.76465,155.03808-92.957,266.15234-117.04638,121.418-26.32422,240.81055-37.38916,354.86719-32.89161a1225.73007,1225.73007,0,0,1,350.832,65.66211c68.38769,23.53663,123.97656,55.22217,169.94238,96.86866,32.26465,29.23193,53.99414,61.44043,66.42774,98.46631.94628,2.81738,5.98925,7.53271,8.99414,8.4082,58.23925,16.98242,102.41113,44.95947,131.28613,83.15381,29.001,38.36035,43.71484,88.521,43.73242,149.08886C2649.501,1193.65381,2649.5,1600.71191,2649.36621,1985.53613ZM1168.20508,961.606c.11621-32.79639.23681-66.70948.25537-100.05323.03662-65.27441.02783-131.91162.019-196.35449q-.00513-38.343-.00781-76.95508-108.0315-.02563-216.06787-.12841c-85.585-.06641-172.35059-.1333-259.56494-.1333-131.14112,0-263.31787.15136-394.188.68554-34.29395.13965-66.74268,14.08057-91.36914,39.25537a132.3903,132.3903,0,0,0-38.20313,92.78028c-.62988,440.042-.4331,877.48-.12744,1284.645.03125,41.63672,17.90528,76.99609,53.125,105.09668,31.26026,24.94238,68,28.4375,103.07617,28.4375h.39454c249.49072-.18555,502.07324-.22559,751.01562-.22559q140.44556,0,278.96.01074,217.53663.01465,435.07422.01856c202.14258.01562,411.1582.02929,616.73437-.19141,17.39454-.01855,37.11036-.04,54.6045-4.18359,31.61914-7.49121,57.93359-24.32617,76.09863-48.68555,18.26074-24.4873,27.918-55.999,27.92773-91.12891.0918-340.34375.06934-686.38671.04688-1021.03564L2565.99512,732.54l.001-1.708c.00293-6.11426.00684-11.88965-.38574-17.57959-3.78711-54.89306-46.28711-106.021-94.375-116.95312v7.4375c.001,53.08838-.07031,107.06054-.13867,159.25537-.17969,136.38476-.36523,277.4126.71387,416.07959.46,59.1499-20.11524,108.667-62.90235,151.38086-37.55078,37.48681-84.57422,67.398-147.98632,94.13427-99.335,41.88086-210.51954,66.294-339.90626,74.63379q-54.59325,3.51856-106.47753,3.52344c-144.76563.00293-274.30469-20.59961-393.58692-62.38379-88.33642-30.94531-151.72217-69.457-199.47851-121.20019-34.47217-37.34864-52.23731-78.334-52.80274-121.81592C1167.648,1118.74023,1167.93115,1038.85791,1168.20508,961.606Zm84.47607-111.99512c-1.0791,23.81445,3.14405,44.64355,12.91114,63.67773,9.20459,17.9375,23.123,33.88721,42.55126,48.75977a466.63335,466.63335,0,0,0,70.10059,44.72852c67.68945,34.73925,146.52051,58.35009,240.998,72.18212,91.81054,13.44043,181.47949,18.27784,266.52929,14.38038,90.28614-4.13819,178.76758-18.27051,262.98536-42.00391,84.55468-23.82764,143.67187-53.32861,191.68261-95.65479,32.25586-28.438,46.791-54.63037,47.12793-84.92773.501-45.14746.39649-89.58643.28516-136.63477-.02637-11.5083-.05469-23.24707-.07227-35.09228-91.08886,64.05469-139.90625,87.17724-229.92773,111.35449A1277.05807,1277.05807,0,0,1,1871.041,853.0625c-93.543,3.22559-190.71-3.603-288.79688-20.30371-120.53516-20.52295-213.34668-54.07178-292.084-105.57959-12.4585-8.14941-24.30567-17.13574-36.78028-26.644.07227,9.77832.17188,19.45263.26953,28.95556C1254.07617,770.86768,1254.479,809.94971,1252.68115,849.61084Zm-.25195,315.57568c-3.99658,54.52393,17.36719,95.52246,69.27051,132.93311,49.24072,35.49219,108.36279,62.04443,180.74463,81.17432a1237.25805,1237.25805,0,0,0,299.49511,41.09375c98.67285,1.30761,199.84278-9.377,300.69434-31.75,98.69629-21.89454,171.79785-54.02051,230.05664-101.10157,24.60352-19.88427,50.98926-43.81592,52.61328-76.26758,2.44727-48.93261,1.92774-99.227,1.42578-147.86572-.12793-12.32959-.25781-24.90967-.34082-37.54834-53.13867,43.73145-118.35742,76.29053-203.50488,101.78272a1204.02183,1204.02183,0,0,1-231.01074,44.88867c-75.8584,7.20312-154.93946,7.55273-235.04883,1.041-103.21-8.39209-181.07227-21.76464-252.46094-43.36084-79.834-24.15039-149.10156-58.51171-210.91064-104.707.11328,8.86866.26367,17.64209.41162,26.2666C1254.53516,1090.874,1255.169,1127.814,1252.4292,1165.18652ZM2387.81445,542.4751c-.6289-28.09717-17.12109-55.78516-47.69336-80.07227-38.07421-30.24658-84.23339-56.62793-133.48632-76.29248-57.98731-23.15185-119.85352-39.47363-189.13672-49.89795-58.33692-8.77734-122.64649-13.35986-196.60743-14.00879-116.71289.66407-218.374,13.34424-310.79785,38.76465-72.94433,20.0625-148.94922,46.23682-210.646,101.43408-30.43213,27.22608-45.936,54.98877-46.08106,82.51758-.146,27.66162,15.19629,55.77442,45.6001,83.55615,40.09717,36.64112,90.93359,64.40039,155.41309,84.86475,114.31152,36.28027,231.44921,55.43652,348.15722,56.9375,114.99414,1.48242,232.71778-14.14062,349.89551-46.42725,79.81836-21.99218,139.32324-51.66552,187.26465-93.38427C2371.83887,602.49756,2388.47754,572.0708,2387.81445,542.4751ZM1206.38037,2481.1582H1528.502c-14.67383-42.71582-21.9707-85.88672-21.71582-128.59277.249-41.68555,7.709-84.31738,22.19825-126.97852H1206.03906c14.54151,43.05371,21.91309,86.19434,21.93457,128.49317C1227.99561,2396.17676,1220.73975,2438.83887,1206.38037,2481.1582ZM1469.252,1729.14746c18.06836.05957,36.42676.05078,54.18164.04q13.1836-.00732,26.36817-.00684,12.64014,0,25.27344-.02441c18.085-.03223,36.78027-.06152,55.13476.08887q.31349.00292.626.00293c14.60644,0,26.57812-4.23828,34.65136-12.27637,5.15332-5.13086,11.28516-14.46484,11.22657-29.79395-.0625-16.39746-7.415-25.88867-13.57227-30.96289-7.77441-6.4082-18.54687-9.793-31.16015-9.793h-.13575c-24.05957.04492-48.52929.03515-72.19043.02636-29.9414-.01269-60.90136-.02636-91.36523.0752-13.86914.04492-25.23828,4.19531-32.88086,12.00293-5.00684,5.11425-10.917,14.459-10.63867,29.92285C1425.22852,1713.84277,1441.85742,1729.05664,1469.252,1729.14746Zm923.81836,128.58692h-.043c-40.39453.02343-82.99707.01074-138.1289-.03711h-.0791c-15.81348,0-27.96875,4.15039-36.125,12.33593-7.168,7.19239-10.77637,16.9043-10.72461,28.86426.05371,12.47168,3.85839,22.50684,11.30859,29.82715,8.24414,8.10156,20.47949,12.2041,36.38086,12.2041.41113,0,.82617-.00293,1.24219-.00781,14.874-.19727,30.05468-.15235,44.73535-.11035,6.80078.01953,13.62109.03418,20.40234.03711q13.67286-.00586,27.34473-.002,21.49952.00294,42.99414-.01269c14.66992-.01465,26.70117-4.36719,34.78906-12.58594,5.14942-5.2334,11.23926-14.72363,11.00586-30.2168C2437.79688,1873.1709,2420.51758,1857.73438,2393.07031,1857.73438ZM1783.459,1721.90918c.95606.8877,1.89454,1.75781,2.79786,2.60937,6.54394,6.165,15.44433,5.44239,21.93945,4.916,1.57422-.12793,3.05957-.249,4.14844-.249h.00488c206.99023.03808,393.24609.03418,569.41211-.01172,1.30664,0,3.00781.12793,4.80859.26367,2.23535.16895,4.63184.34961,7.07715.34961,5.82324,0,11.917-1.02637,16.73535-5.6875,10.01074-9.68262,23.72071-22.94434,24.13672-38.625.30664-11.46582-8.40723-22.48145-28.25488-35.71875-7.57617-5.05371-16.55567-4.29785-23.77344-3.69141-2.0918.17578-4.06738.3418-5.67383.3418h-.01074q-108.4497-.0454-216.90039-.02734l-60.249.001-57.71875-.001q-112.2422-.00586-224.47266.03418c-1.58984-.001-3.51953-.15235-5.5752-.31348-7.41406-.585-16.64062-1.31055-24.19335,4.09961-19.59082,14.03711-27.98829,25.45019-27.22852,37.01074C1761.40625,1701.45215,1773.63379,1712.79492,1783.459,1721.90918Zm259.55176,135.89844c-54.00683-.17188-98.918-.166-141.34375.02148-14.207.0625-25.35351,4.12012-33.12988,12.05957-4.98828,5.09375-10.88281,14.39551-10.63184,29.78613.41407,25.44825,16.99317,40.8125,44.34766,41.09961,9.4541.09961,18.9834.12891,28.44238.12891,6.9502,0,13.86328-.01562,20.67578-.03125q10.37842-.0249,20.75586-.03223,10.04443.01173,20.11231.01172c16.02734.0127,32.60156.02735,48.91406-.02344,13.2793-.041,24.0166-3.20214,31.90918-9.3955,6.50488-5.1045,14.28125-14.90625,14.37988-32.61621.06739-12.05469-3.52343-21.82325-10.6709-29.03418C2068.94238,1861.88379,2057.584,1857.85449,2043.01074,1857.80762Z"/><path class="b" d="M309.42188,828.5415c-.28907-12.65576,3.26171-22.87451,10.55322-30.37158,8.32568-8.561,20.563-12.76367,37.40429-12.84863,19.019-.09522,38.33594-.07227,57.01709-.04981q12.6299.01466,25.26123.02051,11.23828,0,22.47559-.01318c17.69727-.01514,35.99561-.03027,54.00879.04248,13.24072.05371,23.53174,2.72656,31.46094,8.17236,7.07275,4.85742,15.59277,14.418,16.01172,32.3794.29541,12.65381-3.27539,22.89355-10.6128,30.43457-8.27392,8.5039-20.85107,12.84961-37.38086,12.916-25.39941.10254-51.27929.15381-78.02685.15381-25.96875,0-52.75537-.04834-80.71436-.145C314.88086,869.08691,309.69971,840.72754,309.42188,828.5415ZM319.77734,1285.419c52.9961,43.63232,107.07813,87.72949,159.3794,130.374l12.49121,10.18555c1.7417,1.42089,3.606,3.1582,5.58008,4.998,6.84961,6.38574,14.61279,13.624,25.085,15.06348a80.18444,80.18444,0,0,0,10.4082.63965c10.44287,0,26.08985-1.874,35.48193-11.83692,10.4795-11.11425,6.31592-30.90039,3.27588-45.34765-1.8667-8.8711-9.12255-13.958-14.95312-18.0459-1.46094-1.02442-2.84082-1.99219-3.86084-2.83008-41.58252-34.16943-82.55029-67.76807-125.92285-103.33984l-23.57031-19.33155q18.34643-15.02269,36.28662-29.70166c40.27978-32.96289,78.32617-64.09814,116.75634-95.77636,13.897-11.45508,21.90137-25.13037,22.53809-38.50684.49853-10.46-3.35352-20.09717-11.13916-27.86963-10.50879-10.4917-22.25244-14.82715-34.91211-12.88818-9.28271,1.42285-18.59473,6.186-29.3042,14.98974-29.05908,23.88672-58.6748,48.10206-87.31592,71.51954-31.52148,25.77294-64.11572,52.42382-96.09912,78.74316-10.4209,8.57568-24.27539,22.00977-24.27734,39.58936C295.70312,1263.57129,309.44287,1276.91016,319.77734,1285.419Zm389.17432,579.582c-8.07031-5.07032-18.28564-7.43555-32.13623-7.43555h-.25928c-109.37988.2334-221.18261.15527-317.39209.06738-8.81885-.02051-21.74414.7168-32.14746,7.08692-10.9917,6.72949-16.96094,17.88867-17.74267,33.168-.751,14.68261,4.86132,23.86035,9.70263,28.97363,8.69532,9.18457,22.63037,13.876,41.418,13.94433,36.89893.13477,74.40088.10743,110.66846.07911q45.87891-.03516,91.76172.001c15.16845.01074,30.54834.02246,46.01123.02246,22.147,0,44.46338-.02343,66.56689-.10547,18.54834-.06933,33.08838-5.23339,42.04737-14.93554,6.95214-7.5293,10.1831-17.34278,9.34423-28.37891C725.6665,1882.66211,719.66406,1871.73242,708.95166,1865.001Zm-39.91455-387.39844h.31055l.311-.01465c30.686-1.44629,38.03565-29.00684,41.17383-40.77539,16.32959-61.24121,33.03076-123.48633,49.18213-183.68213,15.66406-58.38086,31.8623-118.74951,47.707-178.15137,4.8252-18.08886,3.8252-32.73291-2.97266-43.52539-3.82666-6.0747-11.49463-13.90039-26.29785-16.68506-14.80322-2.78271-26.93017.28956-36.03857,9.13819-6.70117,6.51074-11.30127,15.56738-14.91406,29.36572-10.14063,38.72754-20.82032,78.0376-31.14893,116.05371-5.65186,20.80274-11.49609,42.31348-17.18848,63.49463l-2.29736,8.54785c-15.50488,57.69141-31.53809,117.34717-46.97754,176.12647-4.7417,18.05078-2.6416,34.10351,5.91211,45.20215C643.19775,1472.29883,655.002,1477.59277,669.03711,1477.60254ZM1049.17969,1150.395q-17.04786-13.905-34.11182-27.791c-27.23877-22.17871-55.40527-45.11279-82.98-67.79882-12.98291-10.68116-25.55957-15.45508-37.37842-14.18262-10.333,1.10937-19.47949,6.62012-27.186,16.3789-16.0669,20.34717-11.86426,43.39649,11.24316,61.65723,7.35254,5.81006,14.75635,11.92236,21.917,17.834l5.21973,4.30566c33.79346,27.83105,67.57861,55.67139,102.03516,84.064l25.4873,21.001c-3.73193,3.36719-7.14062,6.39453-10.61133,9.25147l-7.56347,6.227c-44.69971,36.7998-90.92139,74.853-136.56787,112.02343-22.85108,18.60743-26.91163,41.01172-11.13868,61.46875,9.40967,12.20508,19.89209,15.74219,27.0293,16.56153a35.95173,35.95173,0,0,0,4.11377.23535c10.27832,0,20.81885-4.36524,31.39355-13.01465,21.05713-17.22266,42.50733-34.69336,63.252-51.58984,42.03711-34.24024,85.50537-69.645,127.98486-104.83985,13.3999-11.10254,20.20752-23.18359,20.2334-35.90869.02783-13.2417-7.375-26.15234-22.001-38.37207-16.30664-13.62353-33.0498-27.20556-49.24218-40.34033Q1059.7356,1158.9895,1049.17969,1150.395ZM713.84619,869.27051c35.59424.12988,71.77051.10107,106.75733.07422q44.51733-.033,89.03369.001c14.58447.01123,29.375.02246,44.24511.02246,20.811,0,41.77686-.02246,62.54346-.09961h.00049c20.48926-.07568,35.58789-5.28857,44.87744-15.49169,6.86133-7.53663,9.96143-17.35059,8.96582-28.38038-1.39307-15.439-7.94336-26.63964-19.46924-33.293-10.84375-6.25977-24.249-6.958-33.34228-6.93506-100.34815.229-202.94727.23047-304.94678.00244-9.11084.00146-22.50977.689-33.3916,7.0542-11.46973,6.709-17.9585,17.93847-19.28613,33.37646-.94434,10.981,2.17529,20.74317,9.022,28.231C678.15332,864.00146,693.29053,869.1958,713.84619,869.27051Zm145.03565,819.30273c.26562-12.01172-3.43848-22.30469-10.71143-29.7666-7.81445-8.01562-19.251-12.27637-33.07568-12.32324q-3.78516-.01172-7.57032-.04688c-3.36718-.02636-6.73388-.05175-10.10156-.05273q-87.58521-.00732-175.17187-.00488l-99.90235-.001q-74.04126-.00293-148.08593.00391c-31.15772.0039-64.46,3.14062-65.14942,40.5166-.22021,11.92285,2.96826,21.07617,9.74658,27.98144,9.99463,10.18067,26.42774,14.335,56.72119,14.33692q68.44484.00293,136.874.0039,58.75562,0,117.52588-.00586,30.783-.00293,61.56592-.02343c40.08154-.02051,81.52978-.041,122.29.002h.07666C841.09668,1729.19238,858.32715,1713.63379,858.88184,1688.57324Zm288.45117-42.14746c-62.02149.06055-113.19043.06055-161.03321,0h-.09765c-27.67041,0-44.57959,14.90332-45.23194,39.87988-.40917,15.67286,5.55909,25.17481,10.63819,30.38575,8.07324,8.28222,19.81885,12.48144,34.91357,12.48144h.04053q26.45434-.01171,52.91309-.00586l27.61328.001q11.78979-.00147,23.58008-.01367c18.65576-.01563,37.94531-.03125,56.90283.03711h.26172c27.10058,0,44.38623-15.28321,45.1289-39.9336.47022-15.61328-5.46045-25.09863-10.51855-30.30664-8.07276-8.31152-19.85791-12.52539-35.03418-12.52539ZM877.36963,1857.38867c-7.88477-.55371-17.69775-1.24512-25.7544,4.10547-9.9458,6.60742-26.71679,20.0625-27.28759,35.94727-.61426,17.08691,16.5664,32.63671,23.98144,38.53027,5.59717,4.44727,12.46,5.416,18.96631,5.416,2.68408,0,5.30859-.165,7.75684-.31934,2.15088-.13477,4.147-.2793,5.89209-.26172,106.42675.06836,214.63037.0625,319.27734.06055l74.11523-.002,107.87256.001q140.23242,0,280.46973-.00391c18.50586-.001,61.84473-.0039,62.02539-41.64746.05176-11.95605-3.22754-21.08691-10.02344-27.91308-9.5166-9.55762-25.04785-13.63672-51.93554-13.63867-214.2168-.01465-496.37452-.02442-779.208.03125C881.72168,1857.69531,879.60791,1857.5459,877.36963,1857.38867Zm1771.99658,128.14746c-.02539,71.501-22.34277,131.40723-64.53906,173.24121-42.13867,41.77539-102.42676,63.86328-174.34766,63.874q-64.7124.01024-129.4248.03125c-210.72071.05957-428.60938.123-642.92481-.53125-.11914,0-.23828-.001-.35644-.001-15.752,0-20.582,3.2832-25.67285,17.26172-28.59571,78.53711-28.59571,152.9541.001,227.50488,5.709,14.88574,10.27832,18.28613,23.28125,17.3125,19.7334-1.47363,39.62793-1.14062,58.86524-.82226,9.14355.15136,18.59863.3125,27.8125.26465.168-.001.33886-.001.50683-.001,16.89942,0,29.13477,4.11621,37.39746,12.5791,7.26758,7.44238,10.76856,17.63086,10.40723,30.28223-.50879,17.77539-8.87207,27.27734-15.79883,32.11914-7.97754,5.57617-18.36621,8.28711-31.75683,8.28711h-.04493c-214.95214-.10157-441.10742-.11036-711.72509-.02832h-.02491c-29.42871.001-46.4746-15.09278-46.77392-41.416-.13965-12.26465,3.4414-22.17676,10.644-29.46,8.07031-8.16113,20.15576-12.2998,35.918-12.2998.15088.002.2832,0,.42481,0,9.42431,0,19.01367-.04883,28.29248-.09571,21.26464-.10644,43.25293-.21777,64.95361.24317,9.271.19824,11.61279-1.16407,14.76562-8.57032,17.396-40.86132,25.99463-82.46,25.55616-123.63769-.43067-40.46192-9.59571-81.75977-27.24317-122.75781-1.71728-2.07227-8.87109-5.62207-13.38965-5.667-73.99267-.73242-149.26562-.6748-222.06494-.61718-20.1582.0166-40.28955.06445-60.4751.03125q-75.73827-.05127-151.52.06738c-117.44629.08008-238.89014.16211-358.34522-.2207-54.22949-.17383-103.78223-16.64258-143.30078-47.625-39.61914-31.06153-66.53516-74.63965-77.83936-126.02149-4.70214-21.376-5.12353-43.15723-5.15966-65.45312-.26465-163.44532-.23731-329.62207-.21094-490.32715q.011-65.32178.01611-130.64356.00366-93.60717-.0581-187.21338c-.06983-144.64892-.14307-294.22168.21484-441.3413.13672-56.25586,16.61816-106.97364,47.6626-146.66993,31.144-39.82373,75.4209-66.65625,128.04345-77.59863,20.84131-4.3335,42.20069-4.35205,62.85743-4.37012,229.37988-.20361,531.34716-.36767,832.91552.17969,15.8545.02393,19.29444-1.14892,23.50879-14.73828,11.38037-36.69336,35.75928-68.88086,76.72071-101.29639,70.46582-55.76465,155.03808-92.957,266.15234-117.04638,121.418-26.32422,240.81055-37.38916,354.86719-32.89161a1225.73007,1225.73007,0,0,1,350.832,65.66211c68.38769,23.53663,123.97656,55.22217,169.94238,96.86866,32.26465,29.23193,53.99414,61.44043,66.42774,98.46631.94628,2.81738,5.98925,7.53271,8.99414,8.4082,58.23925,16.98242,102.41113,44.95947,131.28613,83.15381,29.001,38.36035,43.71484,88.521,43.73242,149.08886C2649.501,1193.65381,2649.5,1600.71191,2649.36621,1985.53613ZM1168.20508,961.606c.11621-32.79639.23681-66.70948.25537-100.05323.03662-65.27441.02783-131.91162.019-196.35449q-.00513-38.343-.00781-76.95508-108.0315-.02563-216.06787-.12841c-85.585-.06641-172.35059-.1333-259.56494-.1333-131.14112,0-263.31787.15136-394.188.68554-34.29395.13965-66.74268,14.08057-91.36914,39.25537a132.3903,132.3903,0,0,0-38.20313,92.78028c-.62988,440.042-.4331,877.48-.12744,1284.645.03125,41.63672,17.90528,76.99609,53.125,105.09668,31.26026,24.94238,68,28.4375,103.07617,28.4375h.39454c249.49072-.18555,502.07324-.22559,751.01562-.22559q140.44556,0,278.96.01074,217.53663.01465,435.07422.01856c202.14258.01562,411.1582.02929,616.73437-.19141,17.39454-.01855,37.11036-.04,54.6045-4.18359,31.61914-7.49121,57.93359-24.32617,76.09863-48.68555,18.26074-24.4873,27.918-55.999,27.92773-91.12891.0918-340.34375.06934-686.38671.04688-1021.03564L2565.99512,732.54l.001-1.708c.00293-6.11426.00684-11.88965-.38574-17.57959-3.78711-54.89306-46.28711-106.021-94.375-116.95312v7.4375c.001,53.08838-.07031,107.06054-.13867,159.25537-.17969,136.38476-.36523,277.4126.71387,416.07959.46,59.1499-20.11524,108.667-62.90235,151.38086-37.55078,37.48681-84.57422,67.398-147.98632,94.13427-99.335,41.88086-210.51954,66.294-339.90626,74.63379q-54.59325,3.51856-106.47753,3.52344c-144.76563.00293-274.30469-20.59961-393.58692-62.38379-88.33642-30.94531-151.72217-69.457-199.47851-121.20019-34.47217-37.34864-52.23731-78.334-52.80274-121.81592C1167.648,1118.74023,1167.93115,1038.85791,1168.20508,961.606Zm84.47607-111.99512c-1.0791,23.81445,3.14405,44.64355,12.91114,63.67773,9.20459,17.9375,23.123,33.88721,42.55126,48.75977a466.63335,466.63335,0,0,0,70.10059,44.72852c67.68945,34.73925,146.52051,58.35009,240.998,72.18212,91.81054,13.44043,181.47949,18.27784,266.52929,14.38038,90.28614-4.13819,178.76758-18.27051,262.98536-42.00391,84.55468-23.82764,143.67187-53.32861,191.68261-95.65479,32.25586-28.438,46.791-54.63037,47.12793-84.92773.501-45.14746.39649-89.58643.28516-136.63477-.02637-11.5083-.05469-23.24707-.07227-35.09228-91.08886,64.05469-139.90625,87.17724-229.92773,111.35449A1277.05807,1277.05807,0,0,1,1871.041,853.0625c-93.543,3.22559-190.71-3.603-288.79688-20.30371-120.53516-20.52295-213.34668-54.07178-292.084-105.57959-12.4585-8.14941-24.30567-17.13574-36.78028-26.644.07227,9.77832.17188,19.45263.26953,28.95556C1254.07617,770.86768,1254.479,809.94971,1252.68115,849.61084Zm-.25195,315.57568c-3.99658,54.52393,17.36719,95.52246,69.27051,132.93311,49.24072,35.49219,108.36279,62.04443,180.74463,81.17432a1237.25805,1237.25805,0,0,0,299.49511,41.09375c98.67285,1.30761,199.84278-9.377,300.69434-31.75,98.69629-21.89454,171.79785-54.02051,230.05664-101.10157,24.60352-19.88427,50.98926-43.81592,52.61328-76.26758,2.44727-48.93261,1.92774-99.227,1.42578-147.86572-.12793-12.32959-.25781-24.90967-.34082-37.54834-53.13867,43.73145-118.35742,76.29053-203.50488,101.78272a1204.02183,1204.02183,0,0,1-231.01074,44.88867c-75.8584,7.20312-154.93946,7.55273-235.04883,1.041-103.21-8.39209-181.07227-21.76464-252.46094-43.36084-79.834-24.15039-149.10156-58.51171-210.91064-104.707.11328,8.86866.26367,17.64209.41162,26.2666C1254.53516,1090.874,1255.169,1127.814,1252.4292,1165.18652ZM2387.81445,542.4751c-.6289-28.09717-17.12109-55.78516-47.69336-80.07227-38.07421-30.24658-84.23339-56.62793-133.48632-76.29248-57.98731-23.15185-119.85352-39.47363-189.13672-49.89795-58.33692-8.77734-122.64649-13.35986-196.60743-14.00879-116.71289.66407-218.374,13.34424-310.79785,38.76465-72.94433,20.0625-148.94922,46.23682-210.646,101.43408-30.43213,27.22608-45.936,54.98877-46.08106,82.51758-.146,27.66162,15.19629,55.77442,45.6001,83.55615,40.09717,36.64112,90.93359,64.40039,155.41309,84.86475,114.31152,36.28027,231.44921,55.43652,348.15722,56.9375,114.99414,1.48242,232.71778-14.14062,349.89551-46.42725,79.81836-21.99218,139.32324-51.66552,187.26465-93.38427C2371.83887,602.49756,2388.47754,572.0708,2387.81445,542.4751ZM1206.38037,2481.1582H1528.502c-14.67383-42.71582-21.9707-85.88672-21.71582-128.59277.249-41.68555,7.709-84.31738,22.19825-126.97852H1206.03906c14.54151,43.05371,21.91309,86.19434,21.93457,128.49317C1227.99561,2396.17676,1220.73975,2438.83887,1206.38037,2481.1582ZM1469.252,1729.14746c18.06836.05957,36.42676.05078,54.18164.04q13.1836-.00732,26.36817-.00684,12.64014,0,25.27344-.02441c18.085-.03223,36.78027-.06152,55.13476.08887q.31349.00292.626.00293c14.60644,0,26.57812-4.23828,34.65136-12.27637,5.15332-5.13086,11.28516-14.46484,11.22657-29.79395-.0625-16.39746-7.415-25.88867-13.57227-30.96289-7.77441-6.4082-18.54687-9.793-31.16015-9.793h-.13575c-24.05957.04492-48.52929.03515-72.19043.02636-29.9414-.01269-60.90136-.02636-91.36523.0752-13.86914.04492-25.23828,4.19531-32.88086,12.00293-5.00684,5.11425-10.917,14.459-10.63867,29.92285C1425.22852,1713.84277,1441.85742,1729.05664,1469.252,1729.14746Zm923.81836,128.58692h-.043c-40.39453.02343-82.99707.01074-138.1289-.03711h-.0791c-15.81348,0-27.96875,4.15039-36.125,12.33593-7.168,7.19239-10.77637,16.9043-10.72461,28.86426.05371,12.47168,3.85839,22.50684,11.30859,29.82715,8.24414,8.10156,20.47949,12.2041,36.38086,12.2041.41113,0,.82617-.00293,1.24219-.00781,14.874-.19727,30.05468-.15235,44.73535-.11035,6.80078.01953,13.62109.03418,20.40234.03711q13.67286-.00586,27.34473-.002,21.49952.00294,42.99414-.01269c14.66992-.01465,26.70117-4.36719,34.78906-12.58594,5.14942-5.2334,11.23926-14.72363,11.00586-30.2168C2437.79688,1873.1709,2420.51758,1857.73438,2393.07031,1857.73438ZM1783.459,1721.90918c.95606.8877,1.89454,1.75781,2.79786,2.60937,6.54394,6.165,15.44433,5.44239,21.93945,4.916,1.57422-.12793,3.05957-.249,4.14844-.249h.00488c206.99023.03808,393.24609.03418,569.41211-.01172,1.30664,0,3.00781.12793,4.80859.26367,2.23535.16895,4.63184.34961,7.07715.34961,5.82324,0,11.917-1.02637,16.73535-5.6875,10.01074-9.68262,23.72071-22.94434,24.13672-38.625.30664-11.46582-8.40723-22.48145-28.25488-35.71875-7.57617-5.05371-16.55567-4.29785-23.77344-3.69141-2.0918.17578-4.06738.3418-5.67383.3418h-.01074q-108.4497-.0454-216.90039-.02734l-60.249.001-57.71875-.001q-112.2422-.00586-224.47266.03418c-1.58984-.001-3.51953-.15235-5.5752-.31348-7.41406-.585-16.64062-1.31055-24.19335,4.09961-19.59082,14.03711-27.98829,25.45019-27.22852,37.01074C1761.40625,1701.45215,1773.63379,1712.79492,1783.459,1721.90918Zm259.55176,135.89844c-54.00683-.17188-98.918-.166-141.34375.02148-14.207.0625-25.35351,4.12012-33.12988,12.05957-4.98828,5.09375-10.88281,14.39551-10.63184,29.78613.41407,25.44825,16.99317,40.8125,44.34766,41.09961,9.4541.09961,18.9834.12891,28.44238.12891,6.9502,0,13.86328-.01562,20.67578-.03125q10.37842-.0249,20.75586-.03223,10.04443.01173,20.11231.01172c16.02734.0127,32.60156.02735,48.91406-.02344,13.2793-.041,24.0166-3.20214,31.90918-9.3955,6.50488-5.1045,14.28125-14.90625,14.37988-32.61621.06739-12.05469-3.52343-21.82325-10.6709-29.03418C2068.94238,1861.88379,2057.584,1857.85449,2043.01074,1857.80762Z"/></svg>
