<svg xmlns="http://www.w3.org/2000/svg" xmlns:xlink="http://www.w3.org/1999/xlink" viewBox="0 0 2685.06684 2679.30652">
  <defs>
    <style>
      .a {
        fill: url(#a);
      }

      .b {
        fill: url(#b);
      }
    </style>
    <radialGradient id="a" cx="1342.50616" cy="1339.65326" fx="313.94127221127565" fy="271.5560798055185" r="1482.82748" gradientUnits="userSpaceOnUse">
      <stop offset="0.00095" stop-color="#fff"/>
      <stop offset="0.08" stop-color="#ffffac"/>
      <stop offset="0.25" stop-color="#d1b464"/>
      <stop offset="0.625" stop-color="#5d4a1f"/>
      <stop offset="1" stop-color="#5d4a1f"/>
    </radialGradient>
    <radialGradient id="b" cx="1342.50616" cy="1339.65326" fx="239.8825837033164" fy="48.70245541326517" r="1697.74343" gradientUnits="userSpaceOnUse">
      <stop offset="0" stop-color="#c79f4b" stop-opacity="0"/>
      <stop offset="0.6" stop-color="#c79f4b"/>
      <stop offset="0.7" stop-color="#d8b46a"/>
      <stop offset="0.92" stop-color="#fdb931"/>
      <stop offset="1" stop-color="#fedb37"/>
    </radialGradient>
  </defs>
  <path class="a" d="M2383.83036,1446.88916q-33.79027-53.71656-74.3103-107.23035,40.39416-53.43712,74.31055-107.23034c153.65307-244.095,184.61255-462.405,87.1726-614.71656-97.467-152.31152-308.61474-215.7146-594.65918-178.50732-14.724,1.9165-29.5686,4.13965-44.53369,6.5708q-9.0183-20.84583-18.47485-41.06763C1690.54325,143.72583,1523.32682,0,1342.51432,0S994.48545,143.72583,871.6768,404.69678q-9.4866,20.15625-18.47492,41.06787c-14.94861-2.42041-29.80963-4.64356-44.53375-6.5708-286.02777-37.19092-497.192,26.21191-594.65912,178.50708-97.46716,152.29516-66.48028,370.6217,87.17285,614.71667q33.80687,53.72736,74.32685,107.24121-40.39409,53.43732-74.31049,107.23035c-153.65314,244.095-184.61267,462.405-87.17285,614.71661,79.23859,123.85437,233.64191,188.91108,442.38592,188.91108A1183.76178,1183.76178,0,0,0,808.66813,2240.113c14.72412-1.911,29.56867-4.13416,44.53375-6.57086q9.03489,20.83758,18.47492,41.06762c122.80859,260.97107,290.025,404.69672,470.83752,404.69672s348.02893-143.72565,470.83753-404.69672q9.48412-20.15607,18.475-41.06762c14.94861,2.42016,29.80957,4.64331,44.53369,6.57086a1183.72732,1183.72732,0,0,0,152.257,10.40381c208.71655,0,363.15259-65.062,442.38574-188.91108C2568.4705,1909.29413,2537.48368,1690.98419,2383.83036,1446.88916ZM1887.657,526.06543c250.46875-32.56934,431.42383,16.75,509.5398,138.85791,78.116,122.10767,47.0415,307.07617-87.50684,520.83057q-26.18519,41.58215-56.64087,83.10974a2231.98152,2231.98152,0,0,0-278.47656-275.18042C1953.17362,825.72217,1916.20732,668.247,1865.163,529.20288,1872.69206,528.10791,1880.19364,527.0127,1887.657,526.06543Zm99.9585,594.79053a2038.23778,2038.23778,0,0,1,210.37573,218.80285,2038.23761,2038.23761,0,0,1-210.37573,218.80274c5.61816-71.6659,8.51465-144.77161,8.51465-218.80286S1993.23368,1192.52173,1987.61552,1120.856Zm-79.09619,218.80285a2680.029,2680.029,0,0,1-16.69556,300.68067,2679.79326,2679.79326,0,0,1-244.28662,176.10345,2654.388,2654.388,0,0,1-305.02283,168.47034,2653.88456,2653.88456,0,0,1-304.99548-168.46478A2680.9761,2680.9761,0,0,1,793.22666,1640.3396a2715.94244,2715.94244,0,0,1,0-601.36133,2680.97667,2680.97667,0,0,1,244.29218-176.10913A2653.87589,2653.87589,0,0,1,1342.51432,694.4043a2654.38307,2654.38307,0,0,1,304.99561,168.47046A2679.78476,2679.78476,0,0,1,1891.79667,1038.978,2680.04485,2680.04485,0,0,1,1908.51933,1339.65881Zm-34.059-425.4989q-85.99019-65.02368-179.7063-125.08642a2775.534,2775.534,0,0,0-246.95325-140.86744,1917.2714,1917.2714,0,0,1,329.71265-103.25488A1950.57357,1950.57357,0,0,1,1874.46037,914.15991ZM950.94273,442.00269h.011c107.537-228.533,246.59736-354.39161,391.56061-354.39161s284.01819,125.85865,391.56616,354.39161q4.80762,10.21215,9.473,20.63256c-129.12769,28.51172-264.59058,74.40894-401.03919,135.5066-136.44861-61.09766-271.9115-106.99488-401.03894-135.5066Q946.15162,452.2367,950.94273,442.00269ZM907.50419,544.95117a1917.476,1917.476,0,0,1,329.71826,103.25488A2773.41348,2773.41348,0,0,0,990.26908,789.07336Q896.728,848.91718,810.55174,914.15991A1950.979,1950.979,0,0,1,907.50419,544.95117ZM375.339,1185.75391c-134.53205-213.7544-165.634-398.71753-87.5069-520.83057,62.42279-97.5603,190.42786-148.64307,367.13916-148.64307a1108.85954,1108.85954,0,0,1,142.40058,9.78516q11.19231,1.46191,22.48858,3.13769c-51.04431,139.044-88.01062,296.51905-109.40961,464.48023a2232.316,2232.316,0,0,0-278.47137,275.18042Q401.56751,1227.38,375.339,1185.75391Zm322.07422,372.70214A2038.21708,2038.21708,0,0,1,487.032,1339.65881a2038.23576,2038.23576,0,0,1,210.38123-218.79736c-5.62348,71.66028-8.52014,144.76611-8.52014,218.79736C688.89305,1413.69019,691.78959,1486.7959,697.41319,1558.45605Zm99.95855,594.79621c-250.49609,32.57489-431.42907-16.75556-509.53973-138.85791-78.1106-122.1023-47.04156-307.07636,87.507-520.83063q26.18472-41.58765,56.64044-83.10986a2232.32057,2232.32057,0,0,0,278.47137,275.18048c21.399,167.96112,58.3653,325.43634,109.40961,464.48022Q808.575,2151.77386,797.37174,2153.25226Zm13.18012-388.09455q86.00647,65.02946,179.7229,125.08649a2773.41412,2773.41412,0,0,0,246.94769,140.86749,1917.50264,1917.50264,0,0,1-329.7182,103.255A1950.98543,1950.98543,0,0,1,810.55186,1765.15771Zm923.52862,472.15717c-107.54785,228.53308-246.6029,354.39172-391.56616,354.39172s-284.02356-125.85846-391.57159-354.39172q-4.80753-10.20694-9.4729-20.63238c129.12762-28.51191,264.59051-74.409,401.039-135.50678,136.4541,61.0976,271.917,106.99487,401.04443,135.50678Q1738.87181,2227.081,1734.08048,2237.31488Zm43.4386-102.94824a1917.31162,1917.31162,0,0,1-329.71264-103.255,2775.53542,2775.53542,0,0,0,246.95337-140.86749q93.54088-59.84363,179.70629-125.08649A1950.57544,1950.57544,0,0,1,1777.51908,2134.36664Zm619.67749-119.97229c-62.42285,97.56018-190.43335,148.65393-367.13916,148.64288a1107.87952,1107.87952,0,0,1-142.40063-9.785c-7.46338-.96918-14.96509-2.0315-22.49414-3.13757,51.04431-139.044,88.01074-296.51923,109.40954-464.48023a2232.012,2232.012,0,0,0,278.47693-275.18036q30.4065,41.48915,56.64063,83.10962C2444.23808,1707.318,2475.32353,1892.28119,2397.19657,2014.39435ZM1342.51432,908.79919c-155.07141,0-323.06531,45.21277-323.06531,144.48133v573.5614c0,99.2633,168.3938,145.39587,323.27881,145.39587h3.14868a749.20844,749.20844,0,0,0,135.79688-12.92254c116.632-22.38465,183.88989-70.95929,183.88989-132.4787v-573.556C1665.57963,954.012,1497.59123,908.79919,1342.51432,908.79919Zm.39978,87.611c143.79151,0,222.78907,39.2113,233.735,56.87036-10.9513,17.65918-89.94348,56.865-233.735,56.865s-222.78918-39.20581-233.7351-56.865C1120.12492,1035.62158,1199.1226,996.41016,1342.9141,996.41016Zm235.05457,629.27636c-5.47571,9.24842-38.26966,32.82666-112.5033,47.07459v.00525a658.01721,658.01721,0,0,1-123.12073,10.95141c-147.04406,0-224.33337-40.9635-235.28466-57.99853v-87.89551c65.70813,28.063,151.26574,41.42358,235.45434,41.42358s169.74622-13.36059,235.45435-41.42358Zm0-192.04858c-10.9513,17.0293-88.40479,57.99853-235.45435,57.99853-147.04944,0-224.50305-40.969-235.45434-57.99853v-86.55957c65.70813,28.063,151.26574,41.42358,235.45434,41.42358s169.74622-13.36059,235.45435-41.42358Zm0-190.822c-10.9513,16.97461-88.15857,58.08056-235.45435,58.08056s-224.50305-41.10607-235.45434-58.08056V1156.333c65.70813,28.06286,151.26574,41.42358,235.45434,41.42358s169.74622-13.36072,235.45435-41.42358Z"/>
  <path class="b" d="M2383.83036,1446.88916q-33.79027-53.71656-74.3103-107.23035,40.39416-53.43712,74.31055-107.23034c153.65307-244.095,184.61255-462.405,87.1726-614.71656-97.467-152.31152-308.61474-215.7146-594.65918-178.50732-14.724,1.9165-29.5686,4.13965-44.53369,6.5708q-9.0183-20.84583-18.47485-41.06763C1690.54325,143.72583,1523.32682,0,1342.51432,0S994.48545,143.72583,871.6768,404.69678q-9.4866,20.15625-18.47492,41.06787c-14.94861-2.42041-29.80963-4.64356-44.53375-6.5708-286.02777-37.19092-497.192,26.21191-594.65912,178.50708-97.46716,152.29516-66.48028,370.6217,87.17285,614.71667q33.80687,53.72736,74.32685,107.24121-40.39409,53.43732-74.31049,107.23035c-153.65314,244.095-184.61267,462.405-87.17285,614.71661,79.23859,123.85437,233.64191,188.91108,442.38592,188.91108A1183.76178,1183.76178,0,0,0,808.66813,2240.113c14.72412-1.911,29.56867-4.13416,44.53375-6.57086q9.03489,20.83758,18.47492,41.06762c122.80859,260.97107,290.025,404.69672,470.83752,404.69672s348.02893-143.72565,470.83753-404.69672q9.48412-20.15607,18.475-41.06762c14.94861,2.42016,29.80957,4.64331,44.53369,6.57086a1183.72732,1183.72732,0,0,0,152.257,10.40381c208.71655,0,363.15259-65.062,442.38574-188.91108C2568.4705,1909.29413,2537.48368,1690.98419,2383.83036,1446.88916ZM1887.657,526.06543c250.46875-32.56934,431.42383,16.75,509.5398,138.85791,78.116,122.10767,47.0415,307.07617-87.50684,520.83057q-26.18519,41.58215-56.64087,83.10974a2231.98152,2231.98152,0,0,0-278.47656-275.18042C1953.17362,825.72217,1916.20732,668.247,1865.163,529.20288,1872.69206,528.10791,1880.19364,527.0127,1887.657,526.06543Zm99.9585,594.79053a2038.23778,2038.23778,0,0,1,210.37573,218.80285,2038.23761,2038.23761,0,0,1-210.37573,218.80274c5.61816-71.6659,8.51465-144.77161,8.51465-218.80286S1993.23368,1192.52173,1987.61552,1120.856Zm-79.09619,218.80285a2680.029,2680.029,0,0,1-16.69556,300.68067,2679.79326,2679.79326,0,0,1-244.28662,176.10345,2654.388,2654.388,0,0,1-305.02283,168.47034,2653.88456,2653.88456,0,0,1-304.99548-168.46478A2680.9761,2680.9761,0,0,1,793.22666,1640.3396a2715.94244,2715.94244,0,0,1,0-601.36133,2680.97667,2680.97667,0,0,1,244.29218-176.10913A2653.87589,2653.87589,0,0,1,1342.51432,694.4043a2654.38307,2654.38307,0,0,1,304.99561,168.47046A2679.78476,2679.78476,0,0,1,1891.79667,1038.978,2680.04485,2680.04485,0,0,1,1908.51933,1339.65881Zm-34.059-425.4989q-85.99019-65.02368-179.7063-125.08642a2775.534,2775.534,0,0,0-246.95325-140.86744,1917.2714,1917.2714,0,0,1,329.71265-103.25488A1950.57357,1950.57357,0,0,1,1874.46037,914.15991ZM950.94273,442.00269h.011c107.537-228.533,246.59736-354.39161,391.56061-354.39161s284.01819,125.85865,391.56616,354.39161q4.80762,10.21215,9.473,20.63256c-129.12769,28.51172-264.59058,74.40894-401.03919,135.5066-136.44861-61.09766-271.9115-106.99488-401.03894-135.5066Q946.15162,452.2367,950.94273,442.00269ZM907.50419,544.95117a1917.476,1917.476,0,0,1,329.71826,103.25488A2773.41348,2773.41348,0,0,0,990.26908,789.07336Q896.728,848.91718,810.55174,914.15991A1950.979,1950.979,0,0,1,907.50419,544.95117ZM375.339,1185.75391c-134.53205-213.7544-165.634-398.71753-87.5069-520.83057,62.42279-97.5603,190.42786-148.64307,367.13916-148.64307a1108.85954,1108.85954,0,0,1,142.40058,9.78516q11.19231,1.46191,22.48858,3.13769c-51.04431,139.044-88.01062,296.51905-109.40961,464.48023a2232.316,2232.316,0,0,0-278.47137,275.18042Q401.56751,1227.38,375.339,1185.75391Zm322.07422,372.70214A2038.21708,2038.21708,0,0,1,487.032,1339.65881a2038.23576,2038.23576,0,0,1,210.38123-218.79736c-5.62348,71.66028-8.52014,144.76611-8.52014,218.79736C688.89305,1413.69019,691.78959,1486.7959,697.41319,1558.45605Zm99.95855,594.79621c-250.49609,32.57489-431.42907-16.75556-509.53973-138.85791-78.1106-122.1023-47.04156-307.07636,87.507-520.83063q26.18472-41.58765,56.64044-83.10986a2232.32057,2232.32057,0,0,0,278.47137,275.18048c21.399,167.96112,58.3653,325.43634,109.40961,464.48022Q808.575,2151.77386,797.37174,2153.25226Zm13.18012-388.09455q86.00647,65.02946,179.7229,125.08649a2773.41412,2773.41412,0,0,0,246.94769,140.86749,1917.50264,1917.50264,0,0,1-329.7182,103.255A1950.98543,1950.98543,0,0,1,810.55186,1765.15771Zm923.52862,472.15717c-107.54785,228.53308-246.6029,354.39172-391.56616,354.39172s-284.02356-125.85846-391.57159-354.39172q-4.80753-10.20694-9.4729-20.63238c129.12762-28.51191,264.59051-74.409,401.039-135.50678,136.4541,61.0976,271.917,106.99487,401.04443,135.50678Q1738.87181,2227.081,1734.08048,2237.31488Zm43.4386-102.94824a1917.31162,1917.31162,0,0,1-329.71264-103.255,2775.53542,2775.53542,0,0,0,246.95337-140.86749q93.54088-59.84363,179.70629-125.08649A1950.57544,1950.57544,0,0,1,1777.51908,2134.36664Zm619.67749-119.97229c-62.42285,97.56018-190.43335,148.65393-367.13916,148.64288a1107.87952,1107.87952,0,0,1-142.40063-9.785c-7.46338-.96918-14.96509-2.0315-22.49414-3.13757,51.04431-139.044,88.01074-296.51923,109.40954-464.48023a2232.012,2232.012,0,0,0,278.47693-275.18036q30.4065,41.48915,56.64063,83.10962C2444.23808,1707.318,2475.32353,1892.28119,2397.19657,2014.39435ZM1342.51432,908.79919c-155.07141,0-323.06531,45.21277-323.06531,144.48133v573.5614c0,99.2633,168.3938,145.39587,323.27881,145.39587h3.14868a749.20844,749.20844,0,0,0,135.79688-12.92254c116.632-22.38465,183.88989-70.95929,183.88989-132.4787v-573.556C1665.57963,954.012,1497.59123,908.79919,1342.51432,908.79919Zm.39978,87.611c143.79151,0,222.78907,39.2113,233.735,56.87036-10.9513,17.65918-89.94348,56.865-233.735,56.865s-222.78918-39.20581-233.7351-56.865C1120.12492,1035.62158,1199.1226,996.41016,1342.9141,996.41016Zm235.05457,629.27636c-5.47571,9.24842-38.26966,32.82666-112.5033,47.07459v.00525a658.01721,658.01721,0,0,1-123.12073,10.95141c-147.04406,0-224.33337-40.9635-235.28466-57.99853v-87.89551c65.70813,28.063,151.26574,41.42358,235.45434,41.42358s169.74622-13.36059,235.45435-41.42358Zm0-192.04858c-10.9513,17.0293-88.40479,57.99853-235.45435,57.99853-147.04944,0-224.50305-40.969-235.45434-57.99853v-86.55957c65.70813,28.063,151.26574,41.42358,235.45434,41.42358s169.74622-13.36059,235.45435-41.42358Zm0-190.822c-10.9513,16.97461-88.15857,58.08056-235.45435,58.08056s-224.50305-41.10607-235.45434-58.08056V1156.333c65.70813,28.06286,151.26574,41.42358,235.45434,41.42358s169.74622-13.36072,235.45435-41.42358Z"/>
</svg>
