<svg xmlns="http://www.w3.org/2000/svg" viewBox="0 0 2732 2732"><defs><style>.a{fill:url(#a);}  .b{fill:url(#b);}</style><radialGradient id="a" cx="1097.59129" cy="1043.26805" fx="-11.367171606643069" fy="1091.6387403701629" r="2806.63658" gradientUnits="userSpaceOnUse"><stop offset="0.00095" stop-color="#fff"/><stop offset="0.08" stop-color="#ffffac"/><stop offset="0.25" stop-color="#d1b464"/><stop offset="0.625" stop-color="#5d4a1f"/><stop offset="1" stop-color="#5d4a1f"/></radialGradient><radialGradient id="b" cx="2683.72404" cy="2716.1656" r="3210.99077" gradientUnits="userSpaceOnUse"><stop offset="0" stop-color="#fedb37"/><stop offset="0.08" stop-color="#fdb931"/><stop offset="0.3" stop-color="#d8b46a"/><stop offset="0.4" stop-color="#c79f4b"/><stop offset="1" stop-color="#c79f4b" stop-opacity="0"/></radialGradient></defs><path class="a" d="M1835.64218,1802.10561v166.60856h468.0784c21.36049-62.545,61.57579-105.87485,127.67455-120.99724,86.3963-19.76633,173.28419,31.32867,198.52475,116.18087,25.63549,86.18069-19.61436,175.934-104.6253,207.52556-81.58974,30.31987-175.04707-7.41669-209.50082-88.351-10.34236-24.29448-22.50158-29.02625-46.33487-28.85235-152.22,1.10988-304.45227.57625-456.68034.55946-51.5842-.00581-62.75475-11.43222-62.768-64.10581-.01546-62.3798-.00354-124.75944-.00354-188.47613h-82.51848v337.23974c9.239,0,18.58381-.00016,27.92864-.00016q147.82843.00072,295.65688.04424c39.85663.05247,54.35766,14.39663,54.55488,53.73713.19867,39.6376.04366,79.277.04366,119.30336,8.21131,3.38341,15.49179,6.32425,22.72668,9.37375,72.6437,30.61841,115.85917,109.17607,101.43081,184.3479-15.63374,81.452-81.73782,139.11425-161.608,140.96991-78.60085,1.82612-149.31555-51.31942-168.18261-126.39745-19.87652-79.096,16.10326-161.95332,90.17583-193.77719,27.9615-12.013,34.05594-26.6665,31.28457-52.78614-1.647-15.52265-.30163-31.364-.30163-50.16353-11.33828,0-20.70132.00017-30.06436,0q-147.82844-.00072-295.65688-.0473c-39.83859-.05668-54.32383-14.37758-54.36975-53.91346-.14082-121.66358-.05124-243.3275-.05124-367.14384H1413.912v424.17591c100.49209,34.68753,140.39158,126.9385,119.26312,209.41319-19.4969,76.10524-91.39814,129.0777-171.17151,125.9071-78.59916-3.1241-143.51743-60.93263-158.66014-141.28395-15.38174-81.61992,28.7109-151.59014,122.749-193.03335V1802.5992H1158.67168c0,9.90463,0,19.32295-.00008,28.74127q-.00108,169.29742-.05373,338.595c-.05189,39.64664-14.51634,54.05247-54.22868,54.104-107.29041.139-214.58113.04779-325.71142.04779,0,27.93413-1.23172,54.96827.982,81.716.474,5.72749,12.78277,11.95308,20.74466,15.34246,64.68375,27.53564,105.8704,90.15973,104.7082,160.4004-1.129,68.245-44.92792,130.45769-108.9181,154.70988-84.72615,32.11111-179.624-8.45876-215.18749-91.99522a168.83718,168.83718,0,0,1,80.629-217.86032c10.19243-5.02934,20.88786-9.035,32.42042-13.97312,0-40.7034-.239-81.21014.07122-121.71284.27722-36.18524,15.23681-51.13051,51.69457-51.20027,108.15831-.20683,216.31726-.07394,326.42222-.07394V1802.44646H989.71864c0,64.19429.0253,127.43838-.00813,190.68248-.02643,49.92053-11.93478,61.64483-62.62553,61.65032-155.74787.017-311.49683.2677-467.24216-.36361-17.20661-.06975-25.42872,3.94222-32.30232,21.42226C398.06945,2150.78466,318.63314,2193.93322,242.5,2178.94c-83.22277-16.38953-140.25-84.96925-139.69728-167.99776.54241-81.47363,57.88767-149.0812,140.02314-165.08162,76.19711-14.84355,154.71652,28.81764,185.51428,103.20235,2.67546,6.46182,5.0675,13.0415,7.81893,20.15545H903.08259V1802.62406c-8.79241-1.8689-18.87608-3.64255-28.76616-6.17522-56.21054-14.3955-94.55379-62.56176-95.59733-121.32823-.73473-41.37976-.142-82.78308-.142-128.24617-11.18852,0-21.31771.34827-31.41693-.05522-78.07877-3.11894-157.58849,1.99307-233.95949-11.16016-237.12061-40.83837-409.57937-252.4593-410.46038-494.03592-.88815-243.53433,170.3515-454.74814,407.6321-499.81085,41.9522-7.96727,85.56436-8.6297,128.46733-9.38186,17.46518-.30625,25.96535-4.99692,34.92569-19.78179C833.01384,249.8842,1066.37583,111.516,1373.13777,108.7296,1727.2649,105.513,2039.12559,343.55844,2140.13586,685.698c1.73323,5.87066,3.698,11.67271,3.81466,12.03931,56.76327,4.59,111.75046,3.364,164.21859,14.28845,197.941,41.21361,336.69022,225.90316,328.26107,431.23181-8.28542,201.83157-164.57113,373.67354-364.1743,398.6573-36.48346,4.56659-73.66557,4.362-110.54233,4.75986-65.80616.70978-131.6252.19973-200.51547.19973,0,37.8436.02062,73.68058-.004,109.51771C1961.13443,1742.85056,1921.63888,1789.1639,1835.64218,1802.10561Zm96.5532-385.23711c9.59023,43.92131,38.39554,47.18281,73.79,46.03321,71.20018-2.3126,142.60578,1.41859,213.78275-1.23033,135.4513-5.041,237.93588-67.78969,297.41606-189.97076,59.96147-123.16921,47.96144-245.02364-35.478-353.42123-86.14526-111.9125-203.0698-152.11174-341.89653-124.47308-44.364,8.83229-59.30955.53532-70.15463-43.217-.84736-3.418-1.74064-6.82462-2.56126-10.249-73.3201-306.0204-346.30493-536.36922-660.03243-546.12342-302.84174-9.41571-529.04917,124.07388-676.25284,390.085-19.14541,34.5976-28.22325,38.6122-67.21915,36.06709-36.62388-2.39034-74.02834-4.37307-110.2285.24312-201.501,25.69516-358.13534,196.79433-365.81791,396.98361-8.06809,210.23527,130.76321,394.45643,334.53923,433.37891,69.11588,13.20182,141.8874,6.11015,212.675,12.0456,36.10344,3.02723,60.12629-6.66493,73.31374-40.655a11.5284,11.5284,0,0,0,.38139-2.53736c-43.02583-71.20781-43.04428-255.44091.16861-340.85144-22.524-27.80068-31.09145-59.92657-30.35744-95.77912,1.04651-51.12035-.14171-102.28235.38227-153.41876.76108-74.27879,54.53562-129.12815,128.41259-129.226q463.2811-.61371,926.56344.032c72.36962.10971,126.28274,54.9338,127.4132,127.55609.67238,43.19562-.63758,86.42862.3809,129.61068,1.05344,44.66507.0348,88.375-31.93471,122.62282C1974.841,1147.96452,1974.83885,1352.76907,1932.19538,1416.8685Zm-563.44491-377.907q227.01354,0,454.02724-.05255c39.45285-.03391,53.75843-14.61557,53.8999-54.44773.17563-49.37593.2773-98.75443-.04044-148.129-.23251-36.12978-15.33969-51.23482-51.69135-51.24976q-455.34694-.18758-910.69413.00961c-36.14244.01671-50.96741,15.22541-51.1759,51.71614-.27706,48.49322-.15267,96.98935-.04657,145.48394.09426,43.09632,13.6419,56.62332,56.97338,56.64375Q1144.37653,1039.04159,1368.75047,1038.96146Zm1.12417,338.6069q227.01354,0,454.02725-.06491c37.83514-.03939,52.58172-14.96432,52.759-52.91627.23444-50.25718.33482-100.51831-.04527-150.77371-.26119-34.53577-15.63906-50.07917-50.15388-50.09733q-456.66633-.24073-913.33282.00307c-34.53746.01881-49.76693,15.529-50.0257,50.17854-.362,48.49209-.15485,96.989-.08177,145.4837.06775,44.98218,13.17238,58.15187,58.10585,58.16834Q1145.501,1377.63214,1369.87464,1377.56836Zm-.00644,338.60731q227.01354,0,454.02724-.06507c37.839-.03924,52.58817-14.96191,52.76541-52.91.2346-50.257.33434-100.51823-.04527-150.77347-.261-34.53883-15.637-50.08538-50.1476-50.10363q-456.66633-.241-913.33281.00291c-34.54069.01873-49.77274,15.52653-50.03175,50.17241-.36262,48.49193-.155,96.989-.082,145.48354.06775,44.98694,13.17085,58.15825,58.09949,58.17472Q1145.49459,1716.23944,1369.8682,1716.17567ZM356.01586,2012.70894c.02679-46.24473-37.33954-84.19264-83.44187-84.74047-47.02292-.559-85.79356,38.33719-85.25034,85.526.53054,46.086,38.56653,83.56956,84.71843,83.48818C317.70489,2096.90205,355.98936,2058.4809,356.01586,2012.70894Zm2196.38739-.557c-.27376-46.23536-37.88639-83.93688-83.99746-84.196-47.00934-.26415-85.53878,38.90295-84.69384,86.09593.82416,46.04371,39.1406,83.30751,85.2747,82.93179C2514.60741,2096.61207,2552.6741,2057.89964,2552.40325,2012.1519Zm-1182.95881,465.704c46.03727.20554,84.079-37.23442,84.76409-83.42344.6785-45.74435-37.094-84.8698-82.64029-85.60057-47.19843-.75725-86.19682,37.67521-86.0498,84.80086C1285.66225,2439.7464,1323.43254,2477.6504,1369.44444,2477.85594Zm-633.4103,84.65134c46.03759.12093,83.99528-37.383,84.60127-83.58958.59963-45.729-37.266-84.79278-82.81285-85.433-47.247-.66409-86.09382,37.76869-85.87465,84.95973C652.162,2524.54807,690.01089,2562.38651,736.03414,2562.50728ZM2004.07228,2393.4899c-46.20758-.18068-84.26911,37.09281-84.971,83.21192-.71846,47.18878,37.878,86.15857,84.97726,85.79948,46.01713-.35069,83.57755-38.26,83.706-84.48326C2087.91151,2432.25544,2049.69691,2393.66831,2004.07228,2393.4899ZM1452.392,871.764H948.9601V953.2155H1452.392Zm87.98516-.77275v81.5224h81.819v-81.5224Zm249.66425.4445h-80.26787V953.747h80.26787Zm-337.129,419.43139V1209.8534H948.4677v81.01372Zm168.98583-80.97594h-81.229v81.869h81.229Zm168.14314.15186h-80.26787v82.31121h80.26787Zm-337.83019,419.66469v-81.48042H948.70214v81.48042Zm169.53027-81.04883h-80.91221v81.54855h80.91221Zm87.80809-.23041v81.08016h81.37963v-81.08016Z"/><path class="b" d="M1835.64218,1802.10561v166.60856h468.0784c21.36049-62.545,61.57579-105.87485,127.67455-120.99724,86.3963-19.76633,173.28419,31.32867,198.52475,116.18087,25.63549,86.18069-19.61436,175.934-104.6253,207.52556-81.58974,30.31987-175.04707-7.41669-209.50082-88.351-10.34236-24.29448-22.50158-29.02625-46.33487-28.85235-152.22,1.10988-304.45227.57625-456.68034.55946-51.5842-.00581-62.75475-11.43222-62.768-64.10581-.01546-62.3798-.00354-124.75944-.00354-188.47613h-82.51848v337.23974c9.239,0,18.58381-.00016,27.92864-.00016q147.82843.00072,295.65688.04424c39.85663.05247,54.35766,14.39663,54.55488,53.73713.19867,39.6376.04366,79.277.04366,119.30336,8.21131,3.38341,15.49179,6.32425,22.72668,9.37375,72.6437,30.61841,115.85917,109.17607,101.43081,184.3479-15.63374,81.452-81.73782,139.11425-161.608,140.96991-78.60085,1.82612-149.31555-51.31942-168.18261-126.39745-19.87652-79.096,16.10326-161.95332,90.17583-193.77719,27.9615-12.013,34.05594-26.6665,31.28457-52.78614-1.647-15.52265-.30163-31.364-.30163-50.16353-11.33828,0-20.70132.00017-30.06436,0q-147.82844-.00072-295.65688-.0473c-39.83859-.05668-54.32383-14.37758-54.36975-53.91346-.14082-121.66358-.05124-243.3275-.05124-367.14384H1413.912v424.17591c100.49209,34.68753,140.39158,126.9385,119.26312,209.41319-19.4969,76.10524-91.39814,129.0777-171.17151,125.9071-78.59916-3.1241-143.51743-60.93263-158.66014-141.28395-15.38174-81.61992,28.7109-151.59014,122.749-193.03335V1802.5992H1158.67168c0,9.90463,0,19.32295-.00008,28.74127q-.00108,169.29742-.05373,338.595c-.05189,39.64664-14.51634,54.05247-54.22868,54.104-107.29041.139-214.58113.04779-325.71142.04779,0,27.93413-1.23172,54.96827.982,81.716.474,5.72749,12.78277,11.95308,20.74466,15.34246,64.68375,27.53564,105.8704,90.15973,104.7082,160.4004-1.129,68.245-44.92792,130.45769-108.9181,154.70988-84.72615,32.11111-179.624-8.45876-215.18749-91.99522a168.83718,168.83718,0,0,1,80.629-217.86032c10.19243-5.02934,20.88786-9.035,32.42042-13.97312,0-40.7034-.239-81.21014.07122-121.71284.27722-36.18524,15.23681-51.13051,51.69457-51.20027,108.15831-.20683,216.31726-.07394,326.42222-.07394V1802.44646H989.71864c0,64.19429.0253,127.43838-.00813,190.68248-.02643,49.92053-11.93478,61.64483-62.62553,61.65032-155.74787.017-311.49683.2677-467.24216-.36361-17.20661-.06975-25.42872,3.94222-32.30232,21.42226C398.06945,2150.78466,318.63314,2193.93322,242.5,2178.94c-83.22277-16.38953-140.25-84.96925-139.69728-167.99776.54241-81.47363,57.88767-149.0812,140.02314-165.08162,76.19711-14.84355,154.71652,28.81764,185.51428,103.20235,2.67546,6.46182,5.0675,13.0415,7.81893,20.15545H903.08259V1802.62406c-8.79241-1.8689-18.87608-3.64255-28.76616-6.17522-56.21054-14.3955-94.55379-62.56176-95.59733-121.32823-.73473-41.37976-.142-82.78308-.142-128.24617-11.18852,0-21.31771.34827-31.41693-.05522-78.07877-3.11894-157.58849,1.99307-233.95949-11.16016-237.12061-40.83837-409.57937-252.4593-410.46038-494.03592-.88815-243.53433,170.3515-454.74814,407.6321-499.81085,41.9522-7.96727,85.56436-8.6297,128.46733-9.38186,17.46518-.30625,25.96535-4.99692,34.92569-19.78179C833.01384,249.8842,1066.37583,111.516,1373.13777,108.7296,1727.2649,105.513,2039.12559,343.55844,2140.13586,685.698c1.73323,5.87066,3.698,11.67271,3.81466,12.03931,56.76327,4.59,111.75046,3.364,164.21859,14.28845,197.941,41.21361,336.69022,225.90316,328.26107,431.23181-8.28542,201.83157-164.57113,373.67354-364.1743,398.6573-36.48346,4.56659-73.66557,4.362-110.54233,4.75986-65.80616.70978-131.6252.19973-200.51547.19973,0,37.8436.02062,73.68058-.004,109.51771C1961.13443,1742.85056,1921.63888,1789.1639,1835.64218,1802.10561Zm96.5532-385.23711c9.59023,43.92131,38.39554,47.18281,73.79,46.03321,71.20018-2.3126,142.60578,1.41859,213.78275-1.23033,135.4513-5.041,237.93588-67.78969,297.41606-189.97076,59.96147-123.16921,47.96144-245.02364-35.478-353.42123-86.14526-111.9125-203.0698-152.11174-341.89653-124.47308-44.364,8.83229-59.30955.53532-70.15463-43.217-.84736-3.418-1.74064-6.82462-2.56126-10.249-73.3201-306.0204-346.30493-536.36922-660.03243-546.12342-302.84174-9.41571-529.04917,124.07388-676.25284,390.085-19.14541,34.5976-28.22325,38.6122-67.21915,36.06709-36.62388-2.39034-74.02834-4.37307-110.2285.24312-201.501,25.69516-358.13534,196.79433-365.81791,396.98361-8.06809,210.23527,130.76321,394.45643,334.53923,433.37891,69.11588,13.20182,141.8874,6.11015,212.675,12.0456,36.10344,3.02723,60.12629-6.66493,73.31374-40.655a11.5284,11.5284,0,0,0,.38139-2.53736c-43.02583-71.20781-43.04428-255.44091.16861-340.85144-22.524-27.80068-31.09145-59.92657-30.35744-95.77912,1.04651-51.12035-.14171-102.28235.38227-153.41876.76108-74.27879,54.53562-129.12815,128.41259-129.226q463.2811-.61371,926.56344.032c72.36962.10971,126.28274,54.9338,127.4132,127.55609.67238,43.19562-.63758,86.42862.3809,129.61068,1.05344,44.66507.0348,88.375-31.93471,122.62282C1974.841,1147.96452,1974.83885,1352.76907,1932.19538,1416.8685Zm-563.44491-377.907q227.01354,0,454.02724-.05255c39.45285-.03391,53.75843-14.61557,53.8999-54.44773.17563-49.37593.2773-98.75443-.04044-148.129-.23251-36.12978-15.33969-51.23482-51.69135-51.24976q-455.34694-.18758-910.69413.00961c-36.14244.01671-50.96741,15.22541-51.1759,51.71614-.27706,48.49322-.15267,96.98935-.04657,145.48394.09426,43.09632,13.6419,56.62332,56.97338,56.64375Q1144.37653,1039.04159,1368.75047,1038.96146Zm1.12417,338.6069q227.01354,0,454.02725-.06491c37.83514-.03939,52.58172-14.96432,52.759-52.91627.23444-50.25718.33482-100.51831-.04527-150.77371-.26119-34.53577-15.63906-50.07917-50.15388-50.09733q-456.66633-.24073-913.33282.00307c-34.53746.01881-49.76693,15.529-50.0257,50.17854-.362,48.49209-.15485,96.989-.08177,145.4837.06775,44.98218,13.17238,58.15187,58.10585,58.16834Q1145.501,1377.63214,1369.87464,1377.56836Zm-.00644,338.60731q227.01354,0,454.02724-.06507c37.839-.03924,52.58817-14.96191,52.76541-52.91.2346-50.257.33434-100.51823-.04527-150.77347-.261-34.53883-15.637-50.08538-50.1476-50.10363q-456.66633-.241-913.33281.00291c-34.54069.01873-49.77274,15.52653-50.03175,50.17241-.36262,48.49193-.155,96.989-.082,145.48354.06775,44.98694,13.17085,58.15825,58.09949,58.17472Q1145.49459,1716.23944,1369.8682,1716.17567ZM356.01586,2012.70894c.02679-46.24473-37.33954-84.19264-83.44187-84.74047-47.02292-.559-85.79356,38.33719-85.25034,85.526.53054,46.086,38.56653,83.56956,84.71843,83.48818C317.70489,2096.90205,355.98936,2058.4809,356.01586,2012.70894Zm2196.38739-.557c-.27376-46.23536-37.88639-83.93688-83.99746-84.196-47.00934-.26415-85.53878,38.90295-84.69384,86.09593.82416,46.04371,39.1406,83.30751,85.2747,82.93179C2514.60741,2096.61207,2552.6741,2057.89964,2552.40325,2012.1519Zm-1182.95881,465.704c46.03727.20554,84.079-37.23442,84.76409-83.42344.6785-45.74435-37.094-84.8698-82.64029-85.60057-47.19843-.75725-86.19682,37.67521-86.0498,84.80086C1285.66225,2439.7464,1323.43254,2477.6504,1369.44444,2477.85594Zm-633.4103,84.65134c46.03759.12093,83.99528-37.383,84.60127-83.58958.59963-45.729-37.266-84.79278-82.81285-85.433-47.247-.66409-86.09382,37.76869-85.87465,84.95973C652.162,2524.54807,690.01089,2562.38651,736.03414,2562.50728ZM2004.07228,2393.4899c-46.20758-.18068-84.26911,37.09281-84.971,83.21192-.71846,47.18878,37.878,86.15857,84.97726,85.79948,46.01713-.35069,83.57755-38.26,83.706-84.48326C2087.91151,2432.25544,2049.69691,2393.66831,2004.07228,2393.4899ZM1452.392,871.764H948.9601V953.2155H1452.392Zm87.98516-.77275v81.5224h81.819v-81.5224Zm249.66425.4445h-80.26787V953.747h80.26787Zm-337.129,419.43139V1209.8534H948.4677v81.01372Zm168.98583-80.97594h-81.229v81.869h81.229Zm168.14314.15186h-80.26787v82.31121h80.26787Zm-337.83019,419.66469v-81.48042H948.70214v81.48042Zm169.53027-81.04883h-80.91221v81.54855h80.91221Zm87.80809-.23041v81.08016h81.37963v-81.08016Z"/></svg>
