<svg xmlns="http://www.w3.org/2000/svg" viewBox="0 0 332.46 373.65"><defs><style>.a{fill:#e8ad27;fill-rule:evenodd;}.b{fill:#b16c29;}.c{fill:#e2e2e2;}.d{fill:#d68f29;}.e{fill:none;}.f{fill:#fff;}.g{fill:#cb7e29;}</style></defs><path class="a" d="M163.28,131.93A55,55,0,0,0,118.5,214.1l95.27-54.86A54.92,54.92,0,0,0,163.28,131.93Z"/><path class="a" d="M55.82,186.67c.09-61.53,51.93-111.86,113.43-110.21a110.39,110.39,0,0,1,92.58,55.11l66.55-38.31a31.7,31.7,0,0,0-12-11.72Q250,43.26,183.54,5c-11.93-6.89-23.49-6.64-35.33.35C130.59,15.77,42.39,66.3,16.11,81.52,5.29,87.79,0,97.38,0,109.84q0,77,0,154a33.06,33.06,0,0,0,3.89,16.28l66.56-38.32A109.94,109.94,0,0,1,55.82,186.67Z"/><path class="b" d="M118.5,214.1a55,55,0,0,0,95.63-.32l-47.39-27.45Z"/><path class="b" d="M166.23,297.23a110.36,110.36,0,0,1-95.78-55.46L3.89,280.09a31.62,31.62,0,0,0,12.21,12c26.28,15.22,114.49,65.75,132.1,76.14,11.85,7,23.41,7.24,35.35.35q66.36-38.33,132.81-76.51a31.6,31.6,0,0,0,12.21-12l-66.46-38.5A110.37,110.37,0,0,1,166.23,297.23Z"/><path class="c" d="M254.67,251.13h0l39.66,23a1.16,1.16,0,0,1,0,2l-44.69,26.42a2.86,2.86,0,0,1-2.83,0l-30.69-17.23"/><path class="d" d="M332.44,109.85a33,33,0,0,0-4.06-16.59L166.74,186.33l161.83,93.75a33.33,33.33,0,0,0,3.89-16.28S332.46,161.18,332.44,109.85Zm-67.69,95.83H252.1V193H239.46V180.38H252.1V167.74h12.65v12.64h4.33L268.81,193h-4.06ZM323.54,193H310.89v12.65H298.25V193H285.6V180.38h12.65V167.74h12.64v12.64h12.65Z"/><path class="e" d="M166.32,132.34a54.74,54.74,0,1,0,47.79,81.43l-2.64-1.53,2.64,1.53a54.75,54.75,0,0,0-.57-54.39h0L209,162l4.54-2.61A54.71,54.71,0,0,0,166.32,132.34Z"/><path class="c" d="M277,187.08a110.12,110.12,0,0,0-15-55.61l-48.47,27.91h0a54.75,54.75,0,0,1,.57,54.39l48.41,28h0A110.17,110.17,0,0,0,277,187.08Z"/><polygon class="f" points="310.89 167.74 298.25 167.74 298.25 180.38 285.6 180.38 285.6 193.03 298.25 193.03 298.25 205.68 310.89 205.68 310.89 193.03 323.54 193.03 323.54 180.38 310.89 180.38 310.89 167.74"/><polygon class="g" points="255.92 167.74 243.27 167.74 243.27 180.38 230.63 180.38 230.63 193.03 243.27 193.03 243.27 205.68 255.92 205.68 255.92 193.03 268.56 193.03 268.56 180.38 255.92 180.38 255.92 167.74"/><path class="f" d="M214.13,213.78a55,55,0,1,1-.36-54.54l48.06-27.67a110.39,110.39,0,0,0-92.58-55.11c-61.5-1.65-113.34,48.68-113.43,110.21a110.41,110.41,0,0,0,206.29,54.91Z"/></svg>