<svg xmlns="http://www.w3.org/2000/svg" viewBox="0 0 2732 2732"><defs><style>.a{fill:url(#a);}  .b{fill:url(#b);}</style><radialGradient id="a" cx="27.82941" cy="26.28599" r="3643.94763" gradientUnits="userSpaceOnUse"><stop offset="0.00095" stop-color="#fff"/><stop offset="0.08" stop-color="#ffffac"/><stop offset="0.25" stop-color="#d1b464"/><stop offset="0.625" stop-color="#5d4a1f"/><stop offset="1" stop-color="#5d4a1f"/></radialGradient><radialGradient id="b" cx="2696.37587" cy="2708.69533" r="3735.54825" gradientUnits="userSpaceOnUse"><stop offset="0" stop-color="#fedb37"/><stop offset="0.08" stop-color="#fdb931"/><stop offset="0.3" stop-color="#d8b46a"/><stop offset="0.4" stop-color="#c79f4b"/><stop offset="1" stop-color="#c79f4b" stop-opacity="0"/></radialGradient></defs><path class="a" d="M2656.10614,2018.80416c-20.67231,56.69485-58.26979,90.05469-121.44605,89.4973-4.32885-.03821-10.12028,6.48353-12.76833,11.30695-4.31028,7.851-5.501,17.43424-9.90916,25.2088-17.78943,31.376-23.73172,56.97378,5.2215,90.25706,30.6908,35.2809,21.46287,91.92532-10.7263,127.60384-23.71768,26.289-48.65,51.762-75.18514,75.16763-47.32,41.73922-106.60761,35.22-164.27032-16.56455-27.5444,10.87958-55.872,21.38178-83.41471,33.64677-4.40783,1.96275-7.13033,11.69763-7.54033,18.03936-4.66909,72.21694-49.25675,114.62788-121.65249,114.89427-25.56369.09393-51.13.207-76.69182-.02719-65.08555-.5962-111.32427-42.6672-115.27105-107.63391-1.14771-18.89138-6.57383-29.21493-25.26528-31.7029a13.87462,13.87462,0,0,1-4.5602-1.854c-35.33844-19.34277-65.43545-29.157-103.60165,4.488-33.16,29.23155-88.71383,17.45025-123.04531-13.70114-25.61548-23.243-50.41277-47.61386-73.56867-73.29111-39.921-44.26782-39.43654-106.81375,1.55409-150.12141,12.48171-13.1874,14.49006-22.91458,5.20263-37.94346-6.84461-11.07575-12.74719-23.605-15.34646-36.25193-5.42326-26.38717-19.46041-33.20007-46.11322-32.85424-126.14965,1.637-252.33267.85278-378.50323.63939-33.71586-.05708-54.82815-17.64626-56.75019-45.92249-2.14789-31.59885,18.9533-53.12364,53.73518-53.26424,85.76186-.34658,171.52606-.12549,257.28928-.13259,8.06828-.0006,16.13664,0,27.39429,0,0-31.65458-.13365-61.02717.026-90.3981.41046-75.53142,39.99635-117.77155,114.75683-124.459,7.48114-.66914,14.89583-8.68216,21.0728-14.6089,3.182-3.05307,3.0857-9.26387,5.295-13.63062,17.51352-34.61644,28.37423-64.14865-4.5371-101.52248-30.05307-34.12775-18.90634-90.5387,12.89548-125.203,23.38983-25.49513,47.88871-50.12871,73.44424-73.4465,43.3057-39.51341,105.87639-38.73553,150.21534,2.222,12.43715,11.48863,21.12309,13.24448,36.14214,5.276,21.672-11.49784,45.16847-19.55736,67.48775-28.91683,2.28471-16.60683,2.41941-33.48549,7.14951-48.95955,13.74932-44.97978,44.21451-74.12894,91.44162-78.83488,37.55323-3.742,75.85353-3.48263,113.583-1.1425,57.259,3.55142,98.30314,44.14746,102.53217,101.44825,1.59306,21.5852,8.30523,33.40621,29.50382,36.7453a32.76537,32.76537,0,0,1,11.508,4.3509c31.33624,18.93171,58.79365,25.45677,90.26007-5.49242,14.77849-14.53566,43.78834-14.60225,69.70782-22.21176V934.43415H223.16631c-.40305,8.77443-1.15,17.47215-1.15179,26.17009q-.08937,432.93954-.13092,865.879c-.02463,43.90115,8.59841,85.16059,33.9185,121.77542,27.14029,39.24686,63.65911,60.50647,112.53252,60.19583,92.35664-.58684,184.7205-.36576,277.07969-.02326,31.19262.11583,51.82665,18.81679,53.36859,46.60886,1.43679,25.897-16.58131,51.30859-43.00507,51.49283-109.59869.76338-219.77188,5.79294-328.66074-3.42442-102.58706-8.68367-182.35536-101.07563-199.48617-210.88808a402.10709,402.10709,0,0,1-4.92671-61.48973q-.40751-690.22909-.18122-1380.45848c.01162-90.27421,28.97044-168.24841,99.55245-227.4881,39.22572-32.92229,84.97844-49.70676,136.41311-49.71061q940.0972-.07033,1880.19429.13787c109.4621.06174,203.64842,82.6928,228.40961,200.2258,6.22937,29.5688,8.27185,60.50306,8.32214,90.81629.56163,338.92877.24238,677.85917.82424,1016.788.02039,11.94319,3.55127,26.96149,11.175,35.3238,62.23287,68.262,63.61013,115.79582,2.70241,186.41985,10.74262,26.95862,21.29268,54.38749,32.83175,81.39383,1.79209,4.19414,8.15466,9.26236,12.32177,9.19033,62.111-1.07221,98.83758,32.51491,120.83641,86.87794ZM2375.46267,830.96494c0-29.0871.05648-55.40247-.00982-81.71753-.27182-108.03308,1.68367-216.134-1.55651-324.0787-2.86234-95.35784-66.21046-152.7901-160.80225-152.79079q-420.61206-.00309-841.22388-.00067-499.78592.00054-999.57106-.35926c-57.55749-.12761-99.9788,24.60055-123.92726,74.14729-14.59972,30.20521-24.42879,65.68234-25.23019,99.05971-2.929,121.98929-1.19417,244.0912-1.099,366.15057.00494,6.31922,1.09593,12.63755,1.73992,19.58938Zm-699.58839,702.737c-13.02626,12.77829-24.68553,24.05489-36.16827,35.50818-41.90443,41.79676-41.88238,41.81911-.62128,84.64035,26.16639,27.15569,26.5986,42.66585,9.84151,77.44221-17.41839,36.14909-33.59694,73.21379-46.32993,111.21448-13.22681,39.47429-25.28446,51.30421-66.53575,51.68281-54.83132.50318-54.83132.50318-54.83147,55.20433-.00015,58.4202-.00015,58.4202,59.29654,58.8971,37.25739.29962,49.37257,12.04014,61.59075,47.69088a974.93553,974.93553,0,0,0,46.8979,113.61607c17.69459,36.01877,17.3012,52.08738-11.46809,81.08213-39.04254,39.34805-39.04284,39.34805,1.00637,79.39484,40.13075,40.12834,40.1309,40.12819,81.14661-.17186,28.095-27.6048,43.30509-27.8792,79.23642-10.14262,35.235,17.39256,71.65471,33.13271,108.92207,45.46566,44.04914,14.577,53.75277,24.75742,53.96555,72.22223.25778,57.48043-5.81921,51.15833,52.0389,50.95129,71.27174-.25491,61.56479,9.19984,62.34614-60.98474.40079-36.00517,11.67543-47.69963,46.32087-59.8938,39.395-13.8659,78.433-29.48026,115.92056-47.82105,35.98418-17.60519,50.79831-17.62966,79.22993,10.23324,41.24736,40.42236,41.24751,40.42221,81.28086.231,40.02067-40.17817,40.02052-40.17833-.539-81.35652-27.47463-27.89355-27.66824-43.35675-9.85389-79.27116a865.94629,865.94629,0,0,0,45.49678-108.90485c14.48325-43.17447,23.91732-52.29382,70.33785-52.33988,57.63613-.05723,52.16772,4.84547,52.22028-51.36749.05723-61.25656.01283-61.25671-59.84186-62.74361-35.23092-.875-48.41937-13.28555-60.14871-46.84066-13.51646-38.66757-28.50516-77.12553-46.67923-113.77811-19.749-39.82933-19.58681-53.46041,11.46945-85.18144,43.41881-44.34846,43.145-31.49556-.52886-75.83949-41.31547-41.94928-41.5666-41.70191-84.647-.28783-25.97656,24.97186-43.22475,25.43744-75.43205,10.0635a1120.25885,1120.25885,0,0,0-118.07917-48.83029c-36.298-12.47415-48.44217-24.98243-48.99383-63.619-.79963-56.01242-.79963-56.01242-56.47256-56.01242-57.4167,0-57.41685,0-57.93015,57.372-.34733,38.8139-11.41236,51.27431-48.95366,62.96862-29.73246,9.26175-60.47023,18.32206-87.17469,33.70053-75.006,43.19455-79.90194,29.77082-128.27042-19.21562C1690.00522,1543.68327,1683.8432,1539.89762,1675.87428,1533.70193Zm-465.833-31.32945c-30.64316,34.4245-61.83133,68.38085-91.809,103.37453-19.63431,22.91956-17.579,52.392,2.97492,70.87472,20.194,18.15911,50.81892,17.26978,70.77467-4.62092,47.67735-52.3,94.85848-105.08251,141.03233-158.70994,21.255-24.68629,23.372-57.87865,2.88031-82.07747-48.371-57.12192-98.44041-112.86054-149.3094-167.78194-17.18876-18.558-46.55871-16.581-65.08645-.1548-18.524,16.4229-22.0948,43.841-7.994,64.96331,4.08217,6.1149,9.3304,11.47632,14.23725,17.01193,36.47529,41.14973,72.99943,82.2562,110.77155,124.79912C1228.28579,1481.6677,1219.21537,1492.0663,1210.04128,1502.37248Zm-576.103-165.9826c20.73207-23.78035,19.43379-54.11514-1.59257-72.94974-21.107-18.907-51.23342-16.87284-72.50137,6.612q-68.898,76.07968-136.44288,153.379c-25.81193,29.68157-25.10435,63.53266.62511,94.09088,16.98647,20.1741,34.86126,39.6025,52.41023,59.30061,28.51705,32.00947,56.622,64.40493,85.82178,95.78043,17.35148,18.64433,43.53947,21.8155,63.02955,9.27747,20.58049-13.2395,27.872-32.95392,21.05782-55.66221-3.36624-11.218-11.8007-21.52147-19.76392-30.64928-36.23532-41.53489-73.11835-82.50469-111.38777-125.49688C556.31056,1423.87241,595.51038,1380.46764,633.93829,1336.38988Zm324.55425-110.41976c-28.136-26.94986-71.09958-11.25176-81.49486,29.61089-15.83129,62.23076-30.2675,124.81807-45.10746,187.29876q-26.54154,111.74817-52.6681,223.5945c-5.27413,22.72958,3.27838,41.01193,22.57759,53.00811,18.54178,11.52548,39.39637,11.81014,54.98634-3.4673,10.41921-10.21059,18.17376-25.53092,21.78679-39.90545,22.27647-88.62654,43.10183-177.61869,64.27453-266.52144,11.442-48.044,22.616-96.15185,35.126-149.40311C972.67436,1250.508,968.31947,1235.38274,958.49254,1225.97012ZM821.05708,2059.33526c1.02312,26.19553,23.77589,48.07672,50.14653,48.22562a49.68749,49.68749,0,0,0,50.151-50.20921c-.17918-28.0882-22.35613-49.38511-50.94782-48.92617C842.50568,2008.87341,819.99333,2032.09742,821.05708,2059.33526Zm1006.13-1337.457c-75.02235,0-150.06674,1.13386-225.06055-.32929-70.382-1.37322-130.95517-47.19547-153.5351-112.70549-22.55864-65.44723-3.33608-135.83927,49.83317-181.58477,31.98788-27.52159,69.705-40.30266,111.44689-40.39352,145.0994-.31583,290.20484-.83923,435.29865.11507,97.90914.644,171.07914,73.55935,170.97992,167.6591-.09937,94.23944-73.48667,165.97709-171.31275,167.45919-1.64863.025-3.29772.02579-4.9465.02583q-106.35195.0018-212.70373.001Zm.59968-99.44485c69.23348,0,138.46772.18174,207.69939-.18065,11.41025-.05969,23.23035-1.02479,34.13032-4.13336,29.41533-8.389,48.75448-37.26982,46.89035-67.74052-1.88256-30.77121-24.19716-56.26377-54.81275-61.4263-10.48211-1.76752-21.32319-1.92514-32.00086-1.93473q-201.51888-.1806-403.03759-.00393c-10.68085.0091-21.54654.02307-32.00509,1.86153-26.75565,4.70348-44.38531,20.73989-52.20411,46.66824-13.68952,45.397,18.65218,86.04773,70.22474,86.65591C1684.36722,623.04513,1756.08067,622.41234,1827.78673,622.43345ZM1186.553,555.36922c-.34424,91.4583-75.36937,166.35621-166.83591,166.5531-92.22727.19851-168.537-76.35532-167.81736-168.35414.71551-91.46854,75.94981-166.495,167.14119-166.6796C1111.35819,386.70174,1186.90184,462.68226,1186.553,555.36922Zm-234.08686-1.7144c-.35157,37.586,29.64456,68.34914,66.73524,68.44179,36.69244.09163,67.96835-31.24582,67.81447-67.948-.15094-35.99377-29.69667-65.873-66.06625-66.81177A66.61692,66.61692,0,0,0,952.46613,553.65482ZM752.46556,554.865C752.18845,647.96319,676.70713,722.76332,583.9,721.90911c-91.63073-.84342-165.358-75.72586-165.23957-167.82854.11807-91.80836,74.38887-166.61634,166.03232-167.23316C677.04627,386.22578,752.74192,462.03184,752.46556,554.865Zm-234.17264.62539c.51511,36.98017,32.27412,67.71684,68.78776,66.57351a67.70647,67.70647,0,0,0,65.457-69.75589c-.91009-36.27492-30.93665-65.25389-67.40276-65.05112A67.28275,67.28275,0,0,0,518.29292,555.49037ZM2019.02819,1646.45872c168.20818.269,305.35256,137.64379,304.768,305.27993-.58307,167.21239-139.46215,304.81344-306.78826,303.96443-166.66436-.84553-302.81475-137.83134-302.92348-304.78188C1713.97464,1782.44,1850.441,1646.189,2019.02819,1646.45872Zm-204.94155,304.49812c.15494,112.85194,91.43995,204.45439,204.16382,204.87345,111.906.41605,204.53865-91.57647,205.54275-204.122,1.00923-113.13508-91.91354-205.8182-206.01029-205.47886A203.81761,203.81761,0,0,0,1814.08664,1950.95684Z"/><path class="b" d="M2656.10614,2018.80416c-20.67231,56.69485-58.26979,90.05469-121.44605,89.4973-4.32885-.03821-10.12028,6.48353-12.76833,11.30695-4.31028,7.851-5.501,17.43424-9.90916,25.2088-17.78943,31.376-23.73172,56.97378,5.2215,90.25706,30.6908,35.2809,21.46287,91.92532-10.7263,127.60384-23.71768,26.289-48.65,51.762-75.18514,75.16763-47.32,41.73922-106.60761,35.22-164.27032-16.56455-27.5444,10.87958-55.872,21.38178-83.41471,33.64677-4.40783,1.96275-7.13033,11.69763-7.54033,18.03936-4.66909,72.21694-49.25675,114.62788-121.65249,114.89427-25.56369.09393-51.13.207-76.69182-.02719-65.08555-.5962-111.32427-42.6672-115.27105-107.63391-1.14771-18.89138-6.57383-29.21493-25.26528-31.7029a13.87462,13.87462,0,0,1-4.5602-1.854c-35.33844-19.34277-65.43545-29.157-103.60165,4.488-33.16,29.23155-88.71383,17.45025-123.04531-13.70114-25.61548-23.243-50.41277-47.61386-73.56867-73.29111-39.921-44.26782-39.43654-106.81375,1.55409-150.12141,12.48171-13.1874,14.49006-22.91458,5.20263-37.94346-6.84461-11.07575-12.74719-23.605-15.34646-36.25193-5.42326-26.38717-19.46041-33.20007-46.11322-32.85424-126.14965,1.637-252.33267.85278-378.50323.63939-33.71586-.05708-54.82815-17.64626-56.75019-45.92249-2.14789-31.59885,18.9533-53.12364,53.73518-53.26424,85.76186-.34658,171.52606-.12549,257.28928-.13259,8.06828-.0006,16.13664,0,27.39429,0,0-31.65458-.13365-61.02717.026-90.3981.41046-75.53142,39.99635-117.77155,114.75683-124.459,7.48114-.66914,14.89583-8.68216,21.0728-14.6089,3.182-3.05307,3.0857-9.26387,5.295-13.63062,17.51352-34.61644,28.37423-64.14865-4.5371-101.52248-30.05307-34.12775-18.90634-90.5387,12.89548-125.203,23.38983-25.49513,47.88871-50.12871,73.44424-73.4465,43.3057-39.51341,105.87639-38.73553,150.21534,2.222,12.43715,11.48863,21.12309,13.24448,36.14214,5.276,21.672-11.49784,45.16847-19.55736,67.48775-28.91683,2.28471-16.60683,2.41941-33.48549,7.14951-48.95955,13.74932-44.97978,44.21451-74.12894,91.44162-78.83488,37.55323-3.742,75.85353-3.48263,113.583-1.1425,57.259,3.55142,98.30314,44.14746,102.53217,101.44825,1.59306,21.5852,8.30523,33.40621,29.50382,36.7453a32.76537,32.76537,0,0,1,11.508,4.3509c31.33624,18.93171,58.79365,25.45677,90.26007-5.49242,14.77849-14.53566,43.78834-14.60225,69.70782-22.21176V934.43415H223.16631c-.40305,8.77443-1.15,17.47215-1.15179,26.17009q-.08937,432.93954-.13092,865.879c-.02463,43.90115,8.59841,85.16059,33.9185,121.77542,27.14029,39.24686,63.65911,60.50647,112.53252,60.19583,92.35664-.58684,184.7205-.36576,277.07969-.02326,31.19262.11583,51.82665,18.81679,53.36859,46.60886,1.43679,25.897-16.58131,51.30859-43.00507,51.49283-109.59869.76338-219.77188,5.79294-328.66074-3.42442-102.58706-8.68367-182.35536-101.07563-199.48617-210.88808a402.10709,402.10709,0,0,1-4.92671-61.48973q-.40751-690.22909-.18122-1380.45848c.01162-90.27421,28.97044-168.24841,99.55245-227.4881,39.22572-32.92229,84.97844-49.70676,136.41311-49.71061q940.0972-.07033,1880.19429.13787c109.4621.06174,203.64842,82.6928,228.40961,200.2258,6.22937,29.5688,8.27185,60.50306,8.32214,90.81629.56163,338.92877.24238,677.85917.82424,1016.788.02039,11.94319,3.55127,26.96149,11.175,35.3238,62.23287,68.262,63.61013,115.79582,2.70241,186.41985,10.74262,26.95862,21.29268,54.38749,32.83175,81.39383,1.79209,4.19414,8.15466,9.26236,12.32177,9.19033,62.111-1.07221,98.83758,32.51491,120.83641,86.87794ZM2375.46267,830.96494c0-29.0871.05648-55.40247-.00982-81.71753-.27182-108.03308,1.68367-216.134-1.55651-324.0787-2.86234-95.35784-66.21046-152.7901-160.80225-152.79079q-420.61206-.00309-841.22388-.00067-499.78592.00054-999.57106-.35926c-57.55749-.12761-99.9788,24.60055-123.92726,74.14729-14.59972,30.20521-24.42879,65.68234-25.23019,99.05971-2.929,121.98929-1.19417,244.0912-1.099,366.15057.00494,6.31922,1.09593,12.63755,1.73992,19.58938Zm-699.58839,702.737c-13.02626,12.77829-24.68553,24.05489-36.16827,35.50818-41.90443,41.79676-41.88238,41.81911-.62128,84.64035,26.16639,27.15569,26.5986,42.66585,9.84151,77.44221-17.41839,36.14909-33.59694,73.21379-46.32993,111.21448-13.22681,39.47429-25.28446,51.30421-66.53575,51.68281-54.83132.50318-54.83132.50318-54.83147,55.20433-.00015,58.4202-.00015,58.4202,59.29654,58.8971,37.25739.29962,49.37257,12.04014,61.59075,47.69088a974.93553,974.93553,0,0,0,46.8979,113.61607c17.69459,36.01877,17.3012,52.08738-11.46809,81.08213-39.04254,39.34805-39.04284,39.34805,1.00637,79.39484,40.13075,40.12834,40.1309,40.12819,81.14661-.17186,28.095-27.6048,43.30509-27.8792,79.23642-10.14262,35.235,17.39256,71.65471,33.13271,108.92207,45.46566,44.04914,14.577,53.75277,24.75742,53.96555,72.22223.25778,57.48043-5.81921,51.15833,52.0389,50.95129,71.27174-.25491,61.56479,9.19984,62.34614-60.98474.40079-36.00517,11.67543-47.69963,46.32087-59.8938,39.395-13.8659,78.433-29.48026,115.92056-47.82105,35.98418-17.60519,50.79831-17.62966,79.22993,10.23324,41.24736,40.42236,41.24751,40.42221,81.28086.231,40.02067-40.17817,40.02052-40.17833-.539-81.35652-27.47463-27.89355-27.66824-43.35675-9.85389-79.27116a865.94629,865.94629,0,0,0,45.49678-108.90485c14.48325-43.17447,23.91732-52.29382,70.33785-52.33988,57.63613-.05723,52.16772,4.84547,52.22028-51.36749.05723-61.25656.01283-61.25671-59.84186-62.74361-35.23092-.875-48.41937-13.28555-60.14871-46.84066-13.51646-38.66757-28.50516-77.12553-46.67923-113.77811-19.749-39.82933-19.58681-53.46041,11.46945-85.18144,43.41881-44.34846,43.145-31.49556-.52886-75.83949-41.31547-41.94928-41.5666-41.70191-84.647-.28783-25.97656,24.97186-43.22475,25.43744-75.43205,10.0635a1120.25885,1120.25885,0,0,0-118.07917-48.83029c-36.298-12.47415-48.44217-24.98243-48.99383-63.619-.79963-56.01242-.79963-56.01242-56.47256-56.01242-57.4167,0-57.41685,0-57.93015,57.372-.34733,38.8139-11.41236,51.27431-48.95366,62.96862-29.73246,9.26175-60.47023,18.32206-87.17469,33.70053-75.006,43.19455-79.90194,29.77082-128.27042-19.21562C1690.00522,1543.68327,1683.8432,1539.89762,1675.87428,1533.70193Zm-465.833-31.32945c-30.64316,34.4245-61.83133,68.38085-91.809,103.37453-19.63431,22.91956-17.579,52.392,2.97492,70.87472,20.194,18.15911,50.81892,17.26978,70.77467-4.62092,47.67735-52.3,94.85848-105.08251,141.03233-158.70994,21.255-24.68629,23.372-57.87865,2.88031-82.07747-48.371-57.12192-98.44041-112.86054-149.3094-167.78194-17.18876-18.558-46.55871-16.581-65.08645-.1548-18.524,16.4229-22.0948,43.841-7.994,64.96331,4.08217,6.1149,9.3304,11.47632,14.23725,17.01193,36.47529,41.14973,72.99943,82.2562,110.77155,124.79912C1228.28579,1481.6677,1219.21537,1492.0663,1210.04128,1502.37248Zm-576.103-165.9826c20.73207-23.78035,19.43379-54.11514-1.59257-72.94974-21.107-18.907-51.23342-16.87284-72.50137,6.612q-68.898,76.07968-136.44288,153.379c-25.81193,29.68157-25.10435,63.53266.62511,94.09088,16.98647,20.1741,34.86126,39.6025,52.41023,59.30061,28.51705,32.00947,56.622,64.40493,85.82178,95.78043,17.35148,18.64433,43.53947,21.8155,63.02955,9.27747,20.58049-13.2395,27.872-32.95392,21.05782-55.66221-3.36624-11.218-11.8007-21.52147-19.76392-30.64928-36.23532-41.53489-73.11835-82.50469-111.38777-125.49688C556.31056,1423.87241,595.51038,1380.46764,633.93829,1336.38988Zm324.55425-110.41976c-28.136-26.94986-71.09958-11.25176-81.49486,29.61089-15.83129,62.23076-30.2675,124.81807-45.10746,187.29876q-26.54154,111.74817-52.6681,223.5945c-5.27413,22.72958,3.27838,41.01193,22.57759,53.00811,18.54178,11.52548,39.39637,11.81014,54.98634-3.4673,10.41921-10.21059,18.17376-25.53092,21.78679-39.90545,22.27647-88.62654,43.10183-177.61869,64.27453-266.52144,11.442-48.044,22.616-96.15185,35.126-149.40311C972.67436,1250.508,968.31947,1235.38274,958.49254,1225.97012ZM821.05708,2059.33526c1.02312,26.19553,23.77589,48.07672,50.14653,48.22562a49.68749,49.68749,0,0,0,50.151-50.20921c-.17918-28.0882-22.35613-49.38511-50.94782-48.92617C842.50568,2008.87341,819.99333,2032.09742,821.05708,2059.33526Zm1006.13-1337.457c-75.02235,0-150.06674,1.13386-225.06055-.32929-70.382-1.37322-130.95517-47.19547-153.5351-112.70549-22.55864-65.44723-3.33608-135.83927,49.83317-181.58477,31.98788-27.52159,69.705-40.30266,111.44689-40.39352,145.0994-.31583,290.20484-.83923,435.29865.11507,97.90914.644,171.07914,73.55935,170.97992,167.6591-.09937,94.23944-73.48667,165.97709-171.31275,167.45919-1.64863.025-3.29772.02579-4.9465.02583q-106.35195.0018-212.70373.001Zm.59968-99.44485c69.23348,0,138.46772.18174,207.69939-.18065,11.41025-.05969,23.23035-1.02479,34.13032-4.13336,29.41533-8.389,48.75448-37.26982,46.89035-67.74052-1.88256-30.77121-24.19716-56.26377-54.81275-61.4263-10.48211-1.76752-21.32319-1.92514-32.00086-1.93473q-201.51888-.1806-403.03759-.00393c-10.68085.0091-21.54654.02307-32.00509,1.86153-26.75565,4.70348-44.38531,20.73989-52.20411,46.66824-13.68952,45.397,18.65218,86.04773,70.22474,86.65591C1684.36722,623.04513,1756.08067,622.41234,1827.78673,622.43345ZM1186.553,555.36922c-.34424,91.4583-75.36937,166.35621-166.83591,166.5531-92.22727.19851-168.537-76.35532-167.81736-168.35414.71551-91.46854,75.94981-166.495,167.14119-166.6796C1111.35819,386.70174,1186.90184,462.68226,1186.553,555.36922Zm-234.08686-1.7144c-.35157,37.586,29.64456,68.34914,66.73524,68.44179,36.69244.09163,67.96835-31.24582,67.81447-67.948-.15094-35.99377-29.69667-65.873-66.06625-66.81177A66.61692,66.61692,0,0,0,952.46613,553.65482ZM752.46556,554.865C752.18845,647.96319,676.70713,722.76332,583.9,721.90911c-91.63073-.84342-165.358-75.72586-165.23957-167.82854.11807-91.80836,74.38887-166.61634,166.03232-167.23316C677.04627,386.22578,752.74192,462.03184,752.46556,554.865Zm-234.17264.62539c.51511,36.98017,32.27412,67.71684,68.78776,66.57351a67.70647,67.70647,0,0,0,65.457-69.75589c-.91009-36.27492-30.93665-65.25389-67.40276-65.05112A67.28275,67.28275,0,0,0,518.29292,555.49037ZM2019.02819,1646.45872c168.20818.269,305.35256,137.64379,304.768,305.27993-.58307,167.21239-139.46215,304.81344-306.78826,303.96443-166.66436-.84553-302.81475-137.83134-302.92348-304.78188C1713.97464,1782.44,1850.441,1646.189,2019.02819,1646.45872Zm-204.94155,304.49812c.15494,112.85194,91.43995,204.45439,204.16382,204.87345,111.906.41605,204.53865-91.57647,205.54275-204.122,1.00923-113.13508-91.91354-205.8182-206.01029-205.47886A203.81761,203.81761,0,0,0,1814.08664,1950.95684Z"/></svg>
