<svg xmlns="http://www.w3.org/2000/svg" viewBox="0 0 2732 2732"><defs><style>.a{fill:url(#a);}  .b{fill:url(#b);}</style><radialGradient id="a" cx="449.11783" cy="327.38342" r="3319.01874" gradientUnits="userSpaceOnUse"><stop offset="0.00095" stop-color="#fff"/><stop offset="0.08" stop-color="#ffffac"/><stop offset="0.25" stop-color="#d1b464"/><stop offset="0.625" stop-color="#5d4a1f"/><stop offset="1" stop-color="#5d4a1f"/></radialGradient><radialGradient id="b" cx="449.11783" cy="327.38342" r="3319.01874" gradientUnits="userSpaceOnUse"><stop offset="0" stop-color="#c79f4b" stop-opacity="0"/><stop offset="0.6" stop-color="#c79f4b"/><stop offset="0.7" stop-color="#d8b46a"/><stop offset="0.92" stop-color="#fdb931"/><stop offset="1" stop-color="#fedb37"/></radialGradient></defs><path class="a" d="M23.49387,1160.96c5.60779-15.41052,9.98329-31.41211,17.04141-46.12695,27.37137-57.06372,71.58911-94.08808,134.25245-106.13654,18.23679-3.50647,27.414-10.13659,33.73523-28.84442Q327.044,629.08852,618.91565,400.57727c3.43475-2.69794,6.775-5.54571,10.39294-7.97583,21.06116-14.1467,44.21851-11.22092,58.225,7.24439,13.02881,17.17633,9.254,38.35476-9.77033,55.64068q-73.6278,66.89951-147.1015,133.968c-5.58654,5.1159-9.986,11.528-17.36017,20.18487,9.65058,1.2472,16.01331,2.77259,22.37989,2.78888,137.19049.3526,274.38385.90094,411.56781.03577,10.5589-.06653,25.63843-7.55438,30.889-16.25592,77.01691-127.63428,164.42719-247.20239,268.79535-353.99588a92.14482,92.14482,0,0,0,5.88892-7.35332l-2.74-7.30559c-57.75195,11.37366-117.14587,17.59456-172.865,35.34836-80.3067,25.58829-157.62274,60.444-237.01648,89.12653-14.3313,5.17749-35.14252,4.48685-48.02979-2.54031-8.97827-4.89563-15.09808-26.57566-12.29223-38.32044,2.85248-11.93954,16.41638-24.28339,28.37811-30.61935,105.64771-55.96,217.69037-95.32969,335.42841-114.76447,412.82934-68.145,773.40039,39.9686,1076.44629,329.40772,141.99658,135.62088,241.51342,299.84768,303.70117,486.21475,5.31518,15.92877,12.49463,23.45648,29.572,26.67065,91.59717,17.23987,153.96826,91.64649,154.57715,184.54981q1.12573,171.70348.061,343.4198c-.46728,94.80163-62.09424,169.24377-155.08862,186.77441-17.42822,3.2854-23.91675,11.55237-29.12769,27.17456q-107.84142,323.322-367.28637,544.70264c-4.64478,3.97436-9.13184,8.19678-14.11719,11.69873-19.25635,13.52807-41.92114,10.71631-56.20117-6.70752-12.94434-15.7937-10.97022-38.00342,5.98828-54.04614,31.08472-29.40674,62.89062-58.051,93.98071-87.45215,11.342-10.72583,21.501-22.70239,35.90991-38.0647-11.45288-1.07617-18.45336-2.30225-25.45507-2.3081-137.19385-.11255-274.38965-.37623-411.57788.51123-10.216.06616-25.17847,5.74292-29.84815,13.61059-77.913,131.27149-168.40771,252.852-273.82849,368.31787,33.51355-4.82251,67.29382-8.27124,100.49316-14.71338,121.71924-23.61816,236.90406-65.46142,344.89319-126.677,1.51941-.86133,3.007-1.78,4.53577-2.62378,29.92236-16.5144,51.67639-14.12939,64.30395,7.04151,13.62513,22.843,5.92908,46.74218-24.58447,61.31225-68.37854,32.65015-135.77417,69.0271-207.13171,93.50244-502.87915,172.48731-1042.01429,9.2566-1367.59326-412.33276a1175.75943,1175.75943,0,0,1-188.67653-357.11816c-4.88556-15.01954-11.51168-22.34864-27.60689-25.47364-79.68254-15.4718-129.704-63.64392-151.43083-141.64038-1.12-4.02063-3.374-7.72546-5.1-11.57727Q23.49388,1365.45868,23.49387,1160.96Zm1343.36282,486.455v.39734q568.92-.00019,1137.84009-.0354c80.98877-.017,124.207-43.64466,124.25781-125.01233q.09924-158.61658-.01367-317.23316c-.08618-77.81592-44.07764-122.36755-121.59326-122.36413q-1141.77466.04962-2283.54932.40954c-76.1873.025-120.56456,44.69519-120.67278,120.60938q-.22236,155.99469-.03636,311.98974c.00862,90.31507,40.865,131.227,131.1655,131.23133q566.30118.02691,1132.602.00781Zm-485.162-645.39429h966.808c-.88367-5.73346-.668-10.29468-2.3003-14.05341-40.5907-93.46844-80.91491-187.06152-122.974-279.86773-3.50048-7.7237-18.93237-14.20825-28.84643-14.24457-219.18274-.80237-438.36926-.43793-657.55359-.9693-16.29492-.03955-25.74213,4.984-32.1933,19.74048C967.99536,796.43726,930.73,879.97491,894.08636,963.78436c-5.11,11.6875-7.96423,24.36133-12.3916,38.23639Zm1.56458,726.46448c1.06311,6.80359.90033,10.48071,2.21863,13.51428,40.63165,93.505,80.94982,187.15491,122.99554,280.02185,3.52911,7.79456,18.79852,14.53784,28.64508,14.58142,219.302.96777,438.60925.74439,657.91321,1.43518,16.41406.05188,25.483-5.37146,32.11267-19.927,27.83069-61.10181,57.257-121.4906,84.29394-182.93481,14.95325-33.98316,26.33777-69.5365,40.1919-106.6908Zm925.12793,306.88879c6.98364,1.05322,11.01965,2.19177,15.05615,2.19434,149.41516.09619,298.83276.41272,448.24-.6604,9.66968-.06946,23.385-8.60926,28.24121-17.16761q61.88672-109.0664,120.59644-219.9187c11.49633-21.788,17.90918-46.258,27.1521-70.8291-7.43213-.73767-10.8772-1.37744-14.32276-1.37878-159.90039-.06287-319.803.31079-479.69824-.61-18.11157-.10412-20.82764,9.725-25.84216,22.207q-49.71534,123.74946-100.462,247.08374c-5.201,12.68128-11.9469,24.729-18.96057,39.07947Zm638.95288-1031.982c-3.46167-10.83918-5.75171-19.03736-8.67456-27.00318-34.44629-93.88147-80.52466-181.64148-137.17139-264.08655-10.28491-14.96881-21.54321-19.45721-38.831-19.38812-142.38282.56989-284.76844.29724-427.15345.38532-8.13794.005-16.27551.93158-27.09839,1.59338,5.23743,11.02063,9.26966,18.61139,12.53748,26.51825,35.61328,86.17035,71.82886,172.10541,106.02344,258.83661,6.84155,17.353,13.89429,23.71509,32.87805,23.61206,153.73645-.83368,307.47888-.46784,461.21985-.46784,7.6914.00025,15.38257.00013,26.27.00013ZM922.37408,695.42859c-6.03454-.92157-10.0755-2.079-14.116-2.0777-149.21625.05048-298.43512-.11841-447.6424,1.10974-9.62579.0791-23.21545,8.73676-28.10235,17.31238Q370.507,820.58435,311.6366,931.16589c-11.50788,21.70313-17.93958,46.09772-27.7005,71.91089,169.48629,0,334.36065.22345,499.22686-.823,6.54486-.0415,15.92853-11.00311,19.04688-18.84259,21.23657-53.38891,39.99115-107.781,61.851-160.901C881.53711,780.04272,902.27045,738.91553,922.37408,695.42859ZM285.08688,1727.80432c3.68463,11.66809,5.95832,19.9552,8.89469,28.00061,33.98791,93.12329,79.93475,179.97046,135.9516,261.73145,10.01486,14.61755,20.771,20.16516,38.4711,20.0813,143.23361-.67933,286.47189-.35474,429.70865-.45667,7.29913-.00513,14.59735-1.11426,21.87652-1.70752-.29858-4.07361.01056-5.95618-.61011-7.45349-39.69543-95.74426-79.213-191.56494-119.81121-286.92554-2.65461-6.23547-13.51416-12.40918-20.773-12.67248-35.76209-1.29956-71.597-.59693-107.40619-.59705C543.91882,1727.80383,416.44867,1727.80432,285.08688,1727.80432ZM2222.70947,611.58447C2019.08228,389.07462,1774.76685,261.95508,1476.541,229.56728c4.2351,7.1082,5.12768,9.56726,6.79443,11.26706,105.05676,107.13337,193.42639,226.95033,269.215,356.13081,8.88244,15.14007,20.00708,16.39459,34.58947,16.36749q202.93305-.3771,405.867-.20013C2200.63159,613.12848,2208.25562,612.36334,2222.70947,611.58447ZM1252.35925,2500.78418c-52.00732-62.50732-103.088-118.96191-148.38293-179.72925-45.30029-60.77466-84.205-126.28711-127.59931-188.54761-5.75476-8.25683-21.42053-13.4602-32.54071-13.5354-134.518-.91088-269.04437-.62378-403.56836-.51245-7.94451.00659-15.88806,1.17578-29.43554,2.24683C713.63617,2342.04712,957.35486,2468.12988,1252.35925,2500.78418ZM1365.75293,237.83969C1246.51721,347.58514,1148.234,471.401,1063.7594,610.71844h604.56531C1582.57886,471.18729,1485.0376,346.93991,1365.75293,237.83969ZM1667.91931,2120.436h-603.858c85.84705,139.93066,183.30725,263.7705,301.7904,372.1123C1485.21924,2383.15283,1582.19019,2259.261,1667.91931,2120.436Zm-993.216-727.16773c23.37909-63.7876,44.77057-120.92017,65.15527-178.40967,7.57532-21.36377,17.84577-38.73657,43.156-38.53869,25.47912.199,35.26251,18.70263,42.73175,39.495,20.90307,58.18872,42.12408,116.26331,65.07074,179.48279,22.67242-61.80725,43.51672-118.67273,64.40478-175.52222,2.7052-7.36279,4.66571-15.22607,8.648-21.84973,11.197-18.62414,27.60181-26.51819,48.93939-19.29993,20.05616,6.78479,31.37183,27.364,25.02161,48.24366-7.85632,25.83264-17.82086,51.02917-27.02692,76.44543-25.5448,70.52466-51.38946,140.94153-76.62567,211.5763-7.48864,20.96-17.12695,39.27478-42.48053,39.71472-26.94354.467-36.72375-19.132-44.48028-40.7417-20.53284-57.20447-41.40631-114.28662-64.58747-178.14807-21.81707,59.469-41.18036,112.21362-60.50659,164.97168-2.69977,7.36987-5.11059,14.84619-7.8396,22.205-6.94775,18.73523-19.01837,31.7721-40.22137,31.71961-21.106-.052-33.25116-12.72388-40.14459-31.70484q-40.63531-111.88824-81.472-223.70349c-7.45514-20.48852-14.98431-40.95605-22.02527-61.58813-9.85663-28.88282-2.13537-49.78955,21.22516-58.83338,22.63587-8.7633,44.0282,2.70227,54.387,30.57776,20.051,53.957,39.3761,108.18323,59.10364,162.261C667.11945,1377.0575,669.79962,1382.23975,674.70331,1393.26831ZM1362.7616,1342.108q-29.205,80.84217-58.40711,161.68494c-2.665,7.37915-5.06152,14.865-7.98852,22.13806-7.16138,17.79578-19.7522,29.04114-39.59229,28.6842-19.7666-.35534-32.09595-11.79858-38.69641-29.88818q-34.06347-93.356-68.06958-186.73254c-12.52051-34.406-25.313-68.71973-37.2804-103.31812-9.01354-26.05884.022-47.45569,22.42029-55.99389,21.99475-8.38428,43.40479,2.22656,53.27259,28.46533,22.651,60.23,44.39514,120.801,68.84253,187.61548,19.84668-53.35975,37.49853-100.78113,55.11853-148.21436,5.16088-13.89294,7.51477-29.88171,16.08435-41.16675,9.07043-11.94458,22.855-24.42846,36.678-27.63513,18.5962-4.314,32.37781,9.394,39.075,27.69714q31.01037,84.75165,61.94848,169.52979c2.00855,5.48755,4.39466,10.837,8.42859,20.71387,22.11194-60.36817,42.72925-116.6742,63.36548-172.97315,2.69934-7.3645,4.8811-15,8.36352-21.98083,10.27015-20.58814,30.45423-29.05188,50.014-21.55872,20.82813,7.979,31.40967,28.604,23.511,51.12781-23.37183,66.64807-47.77307,132.9353-71.81873,199.34656-10.389,28.693-21.16577,57.24865-31.256,86.04565-7.39795,21.113-17.95752,38.97925-43.34973,38.46643-23.84851-.48169-33.81409-17.22473-41.07312-37.674-20.66785-58.22388-42.31665-116.09949-63.57959-174.11218Q1365.76679,1342.24163,1362.7616,1342.108Zm586.50744-8.22485c-21.91967,60.17932-41.225,113.20483-60.5542,166.22156-2.68774,7.37146-5.6842,14.635-8.207,22.061-6.50854,19.15918-18.74353,31.9718-39.78674,32.00537-21.07422.03357-33.02832-12.9591-39.896-31.93261q-33.82232-93.44184-68.0177-186.74842-15.66485-42.99957-31.24878-86.02844c-14.13305-39.001-8.55456-61.04553,17.82129-70.58716,24.81861-8.97839,43.32605,4.71985,57.0138,42.13147,20.65661,56.45935,41.34155,112.90833,63.62439,173.75867,4.9353-11.48743,8.73254-19.29993,11.7063-27.41431,19.1958-52.37951,38.437-104.74487,57.172-157.28979,7.13758-20.01795,19.11109-33.79822,41.495-33.32251,21.16748.4497,32.44055,14.30114,39.20361,33.01782,21.58777,59.7428,43.36414,119.41736,66.87378,184.08655,5.09692-10.90027,8.67944-17.29761,11.17236-24.09485,19.50977-53.19348,38.55078-106.5603,58.28174-159.67078,10.48364-28.21875,31.42993-39.64184,54.04736-30.76013,23.19874,9.11,31.00269,30.06018,20.5962,58.94153-33.98487,94.316-68.46021,188.45532-102.5564,282.73132-6.78906,18.77161-17.99341,32.53113-39.10352,33.15759-22.50183.66773-34.59851-13.42919-41.73791-33.171C1995.538,1461.16357,1973.782,1401.39587,1949.269,1333.88318Z"/><path class="b" d="M23.49387,1160.96c5.60779-15.41052,9.98329-31.41211,17.04141-46.12695,27.37137-57.06372,71.58911-94.08808,134.25245-106.13654,18.23679-3.50647,27.414-10.13659,33.73523-28.84442Q327.044,629.08852,618.91565,400.57727c3.43475-2.69794,6.775-5.54571,10.39294-7.97583,21.06116-14.1467,44.21851-11.22092,58.225,7.24439,13.02881,17.17633,9.254,38.35476-9.77033,55.64068q-73.6278,66.89951-147.1015,133.968c-5.58654,5.1159-9.986,11.528-17.36017,20.18487,9.65058,1.2472,16.01331,2.77259,22.37989,2.78888,137.19049.3526,274.38385.90094,411.56781.03577,10.5589-.06653,25.63843-7.55438,30.889-16.25592,77.01691-127.63428,164.42719-247.20239,268.79535-353.99588a92.14482,92.14482,0,0,0,5.88892-7.35332l-2.74-7.30559c-57.75195,11.37366-117.14587,17.59456-172.865,35.34836-80.3067,25.58829-157.62274,60.444-237.01648,89.12653-14.3313,5.17749-35.14252,4.48685-48.02979-2.54031-8.97827-4.89563-15.09808-26.57566-12.29223-38.32044,2.85248-11.93954,16.41638-24.28339,28.37811-30.61935,105.64771-55.96,217.69037-95.32969,335.42841-114.76447,412.82934-68.145,773.40039,39.9686,1076.44629,329.40772,141.99658,135.62088,241.51342,299.84768,303.70117,486.21475,5.31518,15.92877,12.49463,23.45648,29.572,26.67065,91.59717,17.23987,153.96826,91.64649,154.57715,184.54981q1.12573,171.70348.061,343.4198c-.46728,94.80163-62.09424,169.24377-155.08862,186.77441-17.42822,3.2854-23.91675,11.55237-29.12769,27.17456q-107.84142,323.322-367.28637,544.70264c-4.64478,3.97436-9.13184,8.19678-14.11719,11.69873-19.25635,13.52807-41.92114,10.71631-56.20117-6.70752-12.94434-15.7937-10.97022-38.00342,5.98828-54.04614,31.08472-29.40674,62.89062-58.051,93.98071-87.45215,11.342-10.72583,21.501-22.70239,35.90991-38.0647-11.45288-1.07617-18.45336-2.30225-25.45507-2.3081-137.19385-.11255-274.38965-.37623-411.57788.51123-10.216.06616-25.17847,5.74292-29.84815,13.61059-77.913,131.27149-168.40771,252.852-273.82849,368.31787,33.51355-4.82251,67.29382-8.27124,100.49316-14.71338,121.71924-23.61816,236.90406-65.46142,344.89319-126.677,1.51941-.86133,3.007-1.78,4.53577-2.62378,29.92236-16.5144,51.67639-14.12939,64.30395,7.04151,13.62513,22.843,5.92908,46.74218-24.58447,61.31225-68.37854,32.65015-135.77417,69.0271-207.13171,93.50244-502.87915,172.48731-1042.01429,9.2566-1367.59326-412.33276a1175.75943,1175.75943,0,0,1-188.67653-357.11816c-4.88556-15.01954-11.51168-22.34864-27.60689-25.47364-79.68254-15.4718-129.704-63.64392-151.43083-141.64038-1.12-4.02063-3.374-7.72546-5.1-11.57727Q23.49388,1365.45868,23.49387,1160.96Zm1343.36282,486.455v.39734q568.92-.00019,1137.84009-.0354c80.98877-.017,124.207-43.64466,124.25781-125.01233q.09924-158.61658-.01367-317.23316c-.08618-77.81592-44.07764-122.36755-121.59326-122.36413q-1141.77466.04962-2283.54932.40954c-76.1873.025-120.56456,44.69519-120.67278,120.60938q-.22236,155.99469-.03636,311.98974c.00862,90.31507,40.865,131.227,131.1655,131.23133q566.30118.02691,1132.602.00781Zm-485.162-645.39429h966.808c-.88367-5.73346-.668-10.29468-2.3003-14.05341-40.5907-93.46844-80.91491-187.06152-122.974-279.86773-3.50048-7.7237-18.93237-14.20825-28.84643-14.24457-219.18274-.80237-438.36926-.43793-657.55359-.9693-16.29492-.03955-25.74213,4.984-32.1933,19.74048C967.99536,796.43726,930.73,879.97491,894.08636,963.78436c-5.11,11.6875-7.96423,24.36133-12.3916,38.23639Zm1.56458,726.46448c1.06311,6.80359.90033,10.48071,2.21863,13.51428,40.63165,93.505,80.94982,187.15491,122.99554,280.02185,3.52911,7.79456,18.79852,14.53784,28.64508,14.58142,219.302.96777,438.60925.74439,657.91321,1.43518,16.41406.05188,25.483-5.37146,32.11267-19.927,27.83069-61.10181,57.257-121.4906,84.29394-182.93481,14.95325-33.98316,26.33777-69.5365,40.1919-106.6908Zm925.12793,306.88879c6.98364,1.05322,11.01965,2.19177,15.05615,2.19434,149.41516.09619,298.83276.41272,448.24-.6604,9.66968-.06946,23.385-8.60926,28.24121-17.16761q61.88672-109.0664,120.59644-219.9187c11.49633-21.788,17.90918-46.258,27.1521-70.8291-7.43213-.73767-10.8772-1.37744-14.32276-1.37878-159.90039-.06287-319.803.31079-479.69824-.61-18.11157-.10412-20.82764,9.725-25.84216,22.207q-49.71534,123.74946-100.462,247.08374c-5.201,12.68128-11.9469,24.729-18.96057,39.07947Zm638.95288-1031.982c-3.46167-10.83918-5.75171-19.03736-8.67456-27.00318-34.44629-93.88147-80.52466-181.64148-137.17139-264.08655-10.28491-14.96881-21.54321-19.45721-38.831-19.38812-142.38282.56989-284.76844.29724-427.15345.38532-8.13794.005-16.27551.93158-27.09839,1.59338,5.23743,11.02063,9.26966,18.61139,12.53748,26.51825,35.61328,86.17035,71.82886,172.10541,106.02344,258.83661,6.84155,17.353,13.89429,23.71509,32.87805,23.61206,153.73645-.83368,307.47888-.46784,461.21985-.46784,7.6914.00025,15.38257.00013,26.27.00013ZM922.37408,695.42859c-6.03454-.92157-10.0755-2.079-14.116-2.0777-149.21625.05048-298.43512-.11841-447.6424,1.10974-9.62579.0791-23.21545,8.73676-28.10235,17.31238Q370.507,820.58435,311.6366,931.16589c-11.50788,21.70313-17.93958,46.09772-27.7005,71.91089,169.48629,0,334.36065.22345,499.22686-.823,6.54486-.0415,15.92853-11.00311,19.04688-18.84259,21.23657-53.38891,39.99115-107.781,61.851-160.901C881.53711,780.04272,902.27045,738.91553,922.37408,695.42859ZM285.08688,1727.80432c3.68463,11.66809,5.95832,19.9552,8.89469,28.00061,33.98791,93.12329,79.93475,179.97046,135.9516,261.73145,10.01486,14.61755,20.771,20.16516,38.4711,20.0813,143.23361-.67933,286.47189-.35474,429.70865-.45667,7.29913-.00513,14.59735-1.11426,21.87652-1.70752-.29858-4.07361.01056-5.95618-.61011-7.45349-39.69543-95.74426-79.213-191.56494-119.81121-286.92554-2.65461-6.23547-13.51416-12.40918-20.773-12.67248-35.76209-1.29956-71.597-.59693-107.40619-.59705C543.91882,1727.80383,416.44867,1727.80432,285.08688,1727.80432ZM2222.70947,611.58447C2019.08228,389.07462,1774.76685,261.95508,1476.541,229.56728c4.2351,7.1082,5.12768,9.56726,6.79443,11.26706,105.05676,107.13337,193.42639,226.95033,269.215,356.13081,8.88244,15.14007,20.00708,16.39459,34.58947,16.36749q202.93305-.3771,405.867-.20013C2200.63159,613.12848,2208.25562,612.36334,2222.70947,611.58447ZM1252.35925,2500.78418c-52.00732-62.50732-103.088-118.96191-148.38293-179.72925-45.30029-60.77466-84.205-126.28711-127.59931-188.54761-5.75476-8.25683-21.42053-13.4602-32.54071-13.5354-134.518-.91088-269.04437-.62378-403.56836-.51245-7.94451.00659-15.88806,1.17578-29.43554,2.24683C713.63617,2342.04712,957.35486,2468.12988,1252.35925,2500.78418ZM1365.75293,237.83969C1246.51721,347.58514,1148.234,471.401,1063.7594,610.71844h604.56531C1582.57886,471.18729,1485.0376,346.93991,1365.75293,237.83969ZM1667.91931,2120.436h-603.858c85.84705,139.93066,183.30725,263.7705,301.7904,372.1123C1485.21924,2383.15283,1582.19019,2259.261,1667.91931,2120.436Zm-993.216-727.16773c23.37909-63.7876,44.77057-120.92017,65.15527-178.40967,7.57532-21.36377,17.84577-38.73657,43.156-38.53869,25.47912.199,35.26251,18.70263,42.73175,39.495,20.90307,58.18872,42.12408,116.26331,65.07074,179.48279,22.67242-61.80725,43.51672-118.67273,64.40478-175.52222,2.7052-7.36279,4.66571-15.22607,8.648-21.84973,11.197-18.62414,27.60181-26.51819,48.93939-19.29993,20.05616,6.78479,31.37183,27.364,25.02161,48.24366-7.85632,25.83264-17.82086,51.02917-27.02692,76.44543-25.5448,70.52466-51.38946,140.94153-76.62567,211.5763-7.48864,20.96-17.12695,39.27478-42.48053,39.71472-26.94354.467-36.72375-19.132-44.48028-40.7417-20.53284-57.20447-41.40631-114.28662-64.58747-178.14807-21.81707,59.469-41.18036,112.21362-60.50659,164.97168-2.69977,7.36987-5.11059,14.84619-7.8396,22.205-6.94775,18.73523-19.01837,31.7721-40.22137,31.71961-21.106-.052-33.25116-12.72388-40.14459-31.70484q-40.63531-111.88824-81.472-223.70349c-7.45514-20.48852-14.98431-40.95605-22.02527-61.58813-9.85663-28.88282-2.13537-49.78955,21.22516-58.83338,22.63587-8.7633,44.0282,2.70227,54.387,30.57776,20.051,53.957,39.3761,108.18323,59.10364,162.261C667.11945,1377.0575,669.79962,1382.23975,674.70331,1393.26831ZM1362.7616,1342.108q-29.205,80.84217-58.40711,161.68494c-2.665,7.37915-5.06152,14.865-7.98852,22.13806-7.16138,17.79578-19.7522,29.04114-39.59229,28.6842-19.7666-.35534-32.09595-11.79858-38.69641-29.88818q-34.06347-93.356-68.06958-186.73254c-12.52051-34.406-25.313-68.71973-37.2804-103.31812-9.01354-26.05884.022-47.45569,22.42029-55.99389,21.99475-8.38428,43.40479,2.22656,53.27259,28.46533,22.651,60.23,44.39514,120.801,68.84253,187.61548,19.84668-53.35975,37.49853-100.78113,55.11853-148.21436,5.16088-13.89294,7.51477-29.88171,16.08435-41.16675,9.07043-11.94458,22.855-24.42846,36.678-27.63513,18.5962-4.314,32.37781,9.394,39.075,27.69714q31.01037,84.75165,61.94848,169.52979c2.00855,5.48755,4.39466,10.837,8.42859,20.71387,22.11194-60.36817,42.72925-116.6742,63.36548-172.97315,2.69934-7.3645,4.8811-15,8.36352-21.98083,10.27015-20.58814,30.45423-29.05188,50.014-21.55872,20.82813,7.979,31.40967,28.604,23.511,51.12781-23.37183,66.64807-47.77307,132.9353-71.81873,199.34656-10.389,28.693-21.16577,57.24865-31.256,86.04565-7.39795,21.113-17.95752,38.97925-43.34973,38.46643-23.84851-.48169-33.81409-17.22473-41.07312-37.674-20.66785-58.22388-42.31665-116.09949-63.57959-174.11218Q1365.76679,1342.24163,1362.7616,1342.108Zm586.50744-8.22485c-21.91967,60.17932-41.225,113.20483-60.5542,166.22156-2.68774,7.37146-5.6842,14.635-8.207,22.061-6.50854,19.15918-18.74353,31.9718-39.78674,32.00537-21.07422.03357-33.02832-12.9591-39.896-31.93261q-33.82232-93.44184-68.0177-186.74842-15.66485-42.99957-31.24878-86.02844c-14.13305-39.001-8.55456-61.04553,17.82129-70.58716,24.81861-8.97839,43.32605,4.71985,57.0138,42.13147,20.65661,56.45935,41.34155,112.90833,63.62439,173.75867,4.9353-11.48743,8.73254-19.29993,11.7063-27.41431,19.1958-52.37951,38.437-104.74487,57.172-157.28979,7.13758-20.01795,19.11109-33.79822,41.495-33.32251,21.16748.4497,32.44055,14.30114,39.20361,33.01782,21.58777,59.7428,43.36414,119.41736,66.87378,184.08655,5.09692-10.90027,8.67944-17.29761,11.17236-24.09485,19.50977-53.19348,38.55078-106.5603,58.28174-159.67078,10.48364-28.21875,31.42993-39.64184,54.04736-30.76013,23.19874,9.11,31.00269,30.06018,20.5962,58.94153-33.98487,94.316-68.46021,188.45532-102.5564,282.73132-6.78906,18.77161-17.99341,32.53113-39.10352,33.15759-22.50183.66773-34.59851-13.42919-41.73791-33.171C1995.538,1461.16357,1973.782,1401.39587,1949.269,1333.88318Z"/></svg>
